<svg width="1440" height="788" viewBox="0 0 1440 788" fill="none" xmlns="http://www.w3.org/2000/svg">
<g clip-path="url(#clip0_75_324)">
<rect width="1440" height="788" fill="#F5F5F5"/>
<mask id="mask0_75_324" style="mask-type:luminance" maskUnits="userSpaceOnUse" x="0" y="0" width="1440" height="788">
<path d="M1440 0H0V788H1440V0Z" fill="white"/>
</mask>
<g mask="url(#mask0_75_324)">
<mask id="mask1_75_324" style="mask-type:alpha" maskUnits="userSpaceOnUse" x="0" y="0" width="1440" height="788">
<path d="M1440 0H0V788H1440V0Z" fill="#D9D9D9"/>
</mask>
<g mask="url(#mask1_75_324)">
<g opacity="0.2">
<path d="M148 -14C148 -37.196 129.196 -56 106 -56C82.804 -56 64 -37.196 64 -14C64 9.19596 82.804 28 106 28C129.196 28 148 9.19596 148 -14Z" fill="#4E46B4"/>
<path d="M148 -14C148 -37.196 129.196 -56 106 -56C82.804 -56 64 -37.196 64 -14C64 9.19596 82.804 28 106 28C129.196 28 148 9.19596 148 -14Z" fill="black" fill-opacity="0.08"/>
</g>
<path opacity="0.2" d="M793 105C793 98.3726 787.627 93 781 93C774.373 93 769 98.3726 769 105C769 111.627 774.373 117 781 117C787.627 117 793 111.627 793 105Z" fill="#40A69F"/>
<path opacity="0.2" d="M137 714C137 700.745 126.255 690 113 690C99.7452 690 89 700.745 89 714C89 727.255 99.7452 738 113 738C126.255 738 137 727.255 137 714Z" fill="#40A69F"/>
<path opacity="0.2" d="M1197.5 65.5C1197.5 61.0817 1201.08 57.5 1205.5 57.5C1209.92 57.5 1213.5 61.0817 1213.5 65.5C1213.5 69.9183 1209.92 73.5 1205.5 73.5C1201.08 73.5 1197.5 69.9183 1197.5 65.5Z" fill="#4E46B4"/>
<g opacity="0.2">
<path d="M598 188C598 185.791 596.209 184 594 184C591.791 184 590 185.791 590 188C590 190.209 591.791 192 594 192C596.209 192 598 190.209 598 188Z" fill="#4E46B4"/>
<path d="M598 188C598 185.791 596.209 184 594 184C591.791 184 590 185.791 590 188C590 190.209 591.791 192 594 192C596.209 192 598 190.209 598 188Z" fill="black" fill-opacity="0.08"/>
</g>
<path opacity="0.2" d="M705 524C705 517.373 710.373 512 717 512C723.627 512 729 517.373 729 524C729 530.627 723.627 536 717 536C710.373 536 705 530.627 705 524Z" fill="#FFB319"/>
<path opacity="0.2" d="M16 648C16 641.373 10.6274 636 4 636C-2.62742 636 -8 641.373 -8 648C-8 654.627 -2.62742 660 4 660C10.6274 660 16 654.627 16 648Z" fill="#FFB319"/>
<path opacity="0.2" d="M1321 574C1321 570.686 1318.31 568 1315 568C1311.69 568 1309 570.686 1309 574C1309 577.314 1311.69 580 1315 580C1318.31 580 1321 577.314 1321 574Z" fill="#40A69F"/>
</g>
</g>
<mask id="path-13-outside-1_75_324" maskUnits="userSpaceOnUse" x="271" y="120.64" width="899" height="296" fill="black">
<rect fill="white" x="271" y="120.64" width="899" height="296"/>
<path d="M323.005 184.89H322.855L312.355 197.34V227.64H291.355V121.14H312.355V168.09H312.505L349.405 121.14H376.105L336.805 168.09L377.305 227.64H351.355L323.005 184.89ZM459.808 227.64L452.608 206.34H411.658L404.458 227.64H382.408L421.858 121.14H442.108L481.858 227.64H459.808ZM417.808 188.34H446.458L432.208 146.49H431.908L417.808 188.34ZM553.144 171.09C560.044 172.79 565.344 175.99 569.044 180.69C572.844 185.39 574.744 191.24 574.744 198.24C574.744 207.04 571.744 214.14 565.744 219.54C559.844 224.94 551.294 227.64 540.094 227.64H495.994V121.14H534.394C545.694 121.14 554.294 123.34 560.194 127.74C566.194 132.14 569.194 138.59 569.194 147.09C569.194 152.29 567.894 157.04 565.294 161.34C562.694 165.64 558.644 168.84 553.144 170.94V171.09ZM516.694 139.74V164.79H531.844C536.344 164.79 540.144 163.74 543.244 161.64C546.344 159.44 547.894 156.29 547.894 152.19C547.894 143.89 542.094 139.74 530.494 139.74H516.694ZM533.794 209.04C539.594 209.04 544.194 207.89 547.594 205.59C550.994 203.29 552.694 199.94 552.694 195.54C552.694 191.24 551.094 187.89 547.894 185.49C544.794 182.99 540.144 181.74 533.944 181.74H516.694V209.04H533.794ZM634.077 228.84C621.077 228.84 610.677 224.89 602.877 216.99C595.077 208.99 591.177 197.84 591.177 183.54V121.14H612.327V182.19C612.327 190.09 614.227 196.54 618.027 201.54C621.927 206.54 627.277 209.04 634.077 209.04C640.677 209.04 646.027 206.64 650.127 201.84C654.227 197.04 656.277 190.49 656.277 182.19V121.14H677.427V183.54C677.427 197.54 673.577 208.59 665.877 216.69C658.277 224.79 647.677 228.84 634.077 228.84ZM699.461 227.64V121.14H738.911C751.311 121.14 760.561 124.39 766.661 130.89C772.861 137.29 775.961 145.84 775.961 156.54C775.961 167.94 772.461 176.59 765.461 182.49C758.561 188.29 749.061 191.19 736.961 191.19H720.311V227.64H699.461ZM720.311 172.44H734.261C740.761 172.44 745.661 170.99 748.961 168.09C752.361 165.19 754.061 161.19 754.061 156.09C754.061 151.09 752.411 147.14 749.111 144.24C745.811 141.34 741.161 139.89 735.161 139.89H720.311V172.44ZM853.997 227.64L846.797 206.34H805.847L798.647 227.64H776.597L816.047 121.14H836.297L876.047 227.64H853.997ZM811.997 188.34H840.647L826.397 146.49H826.097L811.997 188.34ZM903.298 227.64V140.04H873.898V121.14H953.848V140.04H924.298V227.64H903.298ZM969.871 227.64V121.14H1037.97V140.04H990.571V165.54H1028.52V184.14H990.571V208.89H1041.12V227.64H969.871ZM1128.51 121.14H1149.66V227.64H1128.06L1081.11 156.99H1080.81V227.64H1059.81V121.14H1080.81L1128.36 193.14H1128.51V121.14ZM272.093 414.64V308.14H311.543C323.943 308.14 333.193 311.39 339.293 317.89C345.493 324.29 348.593 332.84 348.593 343.54C348.593 354.94 345.093 363.59 338.093 369.49C331.193 375.29 321.693 378.19 309.593 378.19H292.943V414.64H272.093ZM292.943 359.44H306.893C313.393 359.44 318.293 357.99 321.593 355.09C324.993 352.19 326.693 348.19 326.693 343.09C326.693 338.09 325.043 334.14 321.743 331.24C318.443 328.34 313.793 326.89 307.793 326.89H292.943V359.44ZM426.629 414.64L419.429 393.34H378.479L371.279 414.64H349.229L388.679 308.14H408.929L448.679 414.64H426.629ZM384.629 375.34H413.279L399.029 333.49H398.729L384.629 375.34ZM549.665 308.14H570.815V414.64H549.965V348.49H549.665L523.715 394.39H510.065L484.115 348.49H483.815V414.64H462.815V308.14H484.115L516.815 368.74H517.115L549.665 308.14ZM594.212 414.64V308.14H662.312V327.04H614.912V352.54H652.862V371.14H614.912V395.89H665.462V414.64H594.212ZM715.803 371.89H715.653L705.153 384.34V414.64H684.153V308.14H705.153V355.09H705.303L742.203 308.14H768.903L729.603 355.09L770.103 414.64H744.153L715.803 371.89ZM852.605 414.64L845.405 393.34H804.455L797.255 414.64H775.205L814.655 308.14H834.905L874.655 414.64H852.605ZM810.605 375.34H839.255L825.005 333.49H824.705L810.605 375.34ZM920.452 415.84C905.352 415.84 892.402 410.24 881.602 399.04L894.202 383.44C898.002 387.84 902.252 391.19 906.952 393.49C911.652 395.69 916.252 396.79 920.752 396.79C925.752 396.79 929.552 395.79 932.152 393.79C934.752 391.69 936.052 388.94 936.052 385.54C936.052 381.84 934.702 379.04 932.002 377.14C929.302 375.14 924.452 372.94 917.452 370.54C912.652 368.84 908.652 367.24 905.452 365.74C902.252 364.14 898.952 362.04 895.552 359.44C892.152 356.84 889.602 353.69 887.902 349.99C886.202 346.29 885.352 342.04 885.352 337.24C885.352 328.74 888.652 321.59 895.252 315.79C901.852 309.99 909.952 306.99 919.552 306.79C932.552 306.69 944.502 311.19 955.402 320.29L943.252 336.19C934.852 329.19 927.102 325.69 920.002 325.69C916.202 325.69 913.102 326.64 910.702 328.54C908.402 330.44 907.252 333.04 907.252 336.34C907.152 339.44 908.402 341.94 911.002 343.84C913.602 345.64 918.302 347.89 925.102 350.59C936.102 354.89 943.302 358.19 946.702 360.49C954.302 365.69 958.102 373.24 958.102 383.14C958.102 393.84 954.302 401.99 946.702 407.59C939.102 413.09 930.352 415.84 920.452 415.84ZM1042.89 414.64L1035.69 393.34H994.739L987.539 414.64H965.489L1004.94 308.14H1025.19L1064.94 414.64H1042.89ZM1000.89 375.34H1029.54L1015.29 333.49H1014.99L1000.89 375.34ZM1147.78 308.14H1168.93V414.64H1147.33L1100.38 343.99H1100.08V414.64H1079.08V308.14H1100.08L1147.63 380.14H1147.78V308.14Z"/>
</mask>
<path d="M323.005 184.89L323.422 184.614L323.274 184.39H323.005V184.89ZM322.855 184.89V184.39H322.623L322.473 184.568L322.855 184.89ZM312.355 197.34L311.973 197.018L311.855 197.157V197.34H312.355ZM312.355 227.64V228.14H312.855V227.64H312.355ZM291.355 227.64H290.855V228.14H291.355V227.64ZM291.355 121.14V120.64H290.855V121.14H291.355ZM312.355 121.14H312.855V120.64H312.355V121.14ZM312.355 168.09H311.855V168.59H312.355V168.09ZM312.505 168.09V168.59H312.748L312.898 168.399L312.505 168.09ZM349.405 121.14V120.64H349.162L349.012 120.831L349.405 121.14ZM376.105 121.14L376.489 121.461L377.176 120.64H376.105V121.14ZM336.805 168.09L336.422 167.769L336.179 168.059L336.392 168.371L336.805 168.09ZM377.305 227.64V228.14H378.25L377.719 227.359L377.305 227.64ZM351.355 227.64L350.939 227.916L351.087 228.14H351.355V227.64ZM323.005 184.39H322.855V185.39H323.005V184.39ZM322.473 184.568L311.973 197.018L312.737 197.662L323.237 185.212L322.473 184.568ZM311.855 197.34V227.64H312.855V197.34H311.855ZM312.355 227.14H291.355V228.14H312.355V227.14ZM291.855 227.64V121.14H290.855V227.64H291.855ZM291.355 121.64H312.355V120.64H291.355V121.64ZM311.855 121.14V168.09H312.855V121.14H311.855ZM312.355 168.59H312.505V167.59H312.355V168.59ZM312.898 168.399L349.798 121.449L349.012 120.831L312.112 167.781L312.898 168.399ZM349.405 121.64H376.105V120.64H349.405V121.64ZM375.722 120.819L336.422 167.769L337.189 168.411L376.489 121.461L375.722 120.819ZM336.392 168.371L376.892 227.921L377.719 227.359L337.219 167.809L336.392 168.371ZM377.305 227.14H351.355V228.14H377.305V227.14ZM351.772 227.364L323.422 184.614L322.589 185.166L350.939 227.916L351.772 227.364ZM459.808 227.64L459.334 227.8L459.449 228.14H459.808V227.64ZM452.608 206.34L453.081 206.18L452.966 205.84H452.608V206.34ZM411.658 206.34V205.84H411.299L411.184 206.18L411.658 206.34ZM404.458 227.64V228.14H404.816L404.931 227.8L404.458 227.64ZM382.408 227.64L381.939 227.466L381.689 228.14H382.408V227.64ZM421.858 121.14V120.64H421.51L421.389 120.966L421.858 121.14ZM442.108 121.14L442.576 120.965L442.455 120.64H442.108V121.14ZM481.858 227.64V228.14H482.578L482.326 227.465L481.858 227.64ZM417.808 188.34L417.334 188.18L417.112 188.84H417.808V188.34ZM446.458 188.34V188.84H447.156L446.931 188.179L446.458 188.34ZM432.208 146.49L432.681 146.329L432.566 145.99H432.208V146.49ZM431.908 146.49V145.99H431.548L431.434 146.33L431.908 146.49ZM460.281 227.48L453.081 206.18L452.134 206.5L459.334 227.8L460.281 227.48ZM452.608 205.84H411.658V206.84H452.608V205.84ZM411.184 206.18L403.984 227.48L404.931 227.8L412.131 206.5L411.184 206.18ZM404.458 227.14H382.408V228.14H404.458V227.14ZM382.876 227.814L422.326 121.314L421.389 120.966L381.939 227.466L382.876 227.814ZM421.858 121.64H442.108V120.64H421.858V121.64ZM441.639 121.315L481.389 227.815L482.326 227.465L442.576 120.965L441.639 121.315ZM481.858 227.14H459.808V228.14H481.858V227.14ZM417.808 188.84H446.458V187.84H417.808V188.84ZM446.931 188.179L432.681 146.329L431.734 146.651L445.984 188.501L446.931 188.179ZM432.208 145.99H431.908V146.99H432.208V145.99ZM431.434 146.33L417.334 188.18L418.281 188.5L432.381 146.65L431.434 146.33ZM553.144 171.09H552.644V171.482L553.024 171.575L553.144 171.09ZM569.044 180.69L568.651 180.999L568.655 181.004L569.044 180.69ZM565.744 219.54L565.409 219.168L565.406 219.171L565.744 219.54ZM495.994 227.64H495.494V228.14H495.994V227.64ZM495.994 121.14V120.64H495.494V121.14H495.994ZM560.194 127.74L559.895 128.141L559.898 128.143L560.194 127.74ZM565.294 161.34L564.866 161.081L565.294 161.34ZM553.144 170.94L552.966 170.473L552.644 170.596V170.94H553.144ZM516.694 139.74V139.24H516.194V139.74H516.694ZM516.694 164.79H516.194V165.29H516.694V164.79ZM543.244 161.64L543.524 162.054L543.533 162.048L543.244 161.64ZM547.594 205.59L547.874 206.004L547.594 205.59ZM547.894 185.49L547.58 185.879L547.587 185.885L547.594 185.89L547.894 185.49ZM516.694 181.74V181.24H516.194V181.74H516.694ZM516.694 209.04H516.194V209.54H516.694V209.04ZM553.024 171.575C559.837 173.254 565.032 176.402 568.651 180.999L569.437 180.381C565.656 175.577 560.251 172.326 553.264 170.604L553.024 171.575ZM568.655 181.004C572.372 185.602 574.244 191.335 574.244 198.24H575.244C575.244 191.144 573.316 185.178 569.433 180.376L568.655 181.004ZM574.244 198.24C574.244 206.912 571.294 213.872 565.409 219.168L566.078 219.912C572.194 214.408 575.244 207.167 575.244 198.24H574.244ZM565.406 219.171C559.63 224.458 551.219 227.14 540.094 227.14V228.14C551.369 228.14 560.058 225.422 566.082 219.909L565.406 219.171ZM540.094 227.14H495.994V228.14H540.094V227.14ZM496.494 227.64V121.14H495.494V227.64H496.494ZM495.994 121.64H534.394V120.64H495.994V121.64ZM534.394 121.64C545.641 121.64 554.117 123.831 559.895 128.141L560.493 127.339C554.471 122.848 545.747 120.64 534.394 120.64V121.64ZM559.898 128.143C565.75 132.435 568.694 138.723 568.694 147.09H569.694C569.694 138.457 566.638 131.845 560.49 127.337L559.898 128.143ZM568.694 147.09C568.694 152.202 567.417 156.862 564.866 161.081L565.722 161.599C568.371 157.218 569.694 152.378 569.694 147.09H568.694ZM564.866 161.081C562.333 165.27 558.38 168.405 552.966 170.473L553.322 171.407C558.908 169.274 563.055 166.01 565.722 161.599L564.866 161.081ZM552.644 170.94V171.09H553.644V170.94H552.644ZM516.194 139.74V164.79H517.194V139.74H516.194ZM516.694 165.29H531.844V164.29H516.694V165.29ZM531.844 165.29C536.423 165.29 540.326 164.22 543.524 162.054L542.964 161.226C539.962 163.259 536.264 164.29 531.844 164.29V165.29ZM543.533 162.048C546.777 159.746 548.394 156.437 548.394 152.19H547.394C547.394 156.143 545.911 159.134 542.955 161.232L543.533 162.048ZM548.394 152.19C548.394 147.909 546.889 144.631 543.835 142.446C540.812 140.283 536.339 139.24 530.494 139.24V140.24C536.249 140.24 540.476 141.272 543.253 143.259C545.999 145.224 547.394 148.171 547.394 152.19H548.394ZM530.494 139.24H516.694V140.24H530.494V139.24ZM533.794 209.54C539.654 209.54 544.364 208.379 547.874 206.004L547.314 205.176C544.024 207.401 539.534 208.54 533.794 208.54V209.54ZM547.874 206.004C551.423 203.603 553.194 200.092 553.194 195.54H552.194C552.194 199.788 550.565 202.976 547.314 205.176L547.874 206.004ZM553.194 195.54C553.194 191.096 551.53 187.592 548.194 185.09L547.594 185.89C550.657 188.188 552.194 191.384 552.194 195.54H553.194ZM548.208 185.101C544.981 182.499 540.198 181.24 533.944 181.24V182.24C540.09 182.24 544.607 183.481 547.58 185.879L548.208 185.101ZM533.944 181.24H516.694V182.24H533.944V181.24ZM516.194 181.74V209.04H517.194V181.74H516.194ZM516.694 209.54H533.794V208.54H516.694V209.54ZM602.877 216.99L602.519 217.339L602.521 217.341L602.877 216.99ZM591.177 121.14V120.64H590.677V121.14H591.177ZM612.327 121.14H612.827V120.64H612.327V121.14ZM618.027 201.54L617.629 201.842L617.633 201.847L618.027 201.54ZM650.127 201.84L649.747 201.515L650.127 201.84ZM656.277 121.14V120.64H655.777V121.14H656.277ZM677.427 121.14H677.927V120.64H677.427V121.14ZM665.877 216.69L665.515 216.345L665.513 216.348L665.877 216.69ZM634.077 228.34C621.186 228.34 610.923 224.427 603.233 216.639L602.521 217.341C610.431 225.353 620.968 229.34 634.077 229.34V228.34ZM603.235 216.641C595.55 208.758 591.677 197.748 591.677 183.54H590.677C590.677 197.932 594.605 209.221 602.519 217.339L603.235 216.641ZM591.677 183.54V121.14H590.677V183.54H591.677ZM591.177 121.64H612.327V120.64H591.177V121.64ZM611.827 121.14V182.19H612.827V121.14H611.827ZM611.827 182.19C611.827 190.171 613.748 196.735 617.629 201.842L618.425 201.237C614.707 196.345 612.827 190.009 612.827 182.19H611.827ZM617.633 201.847C621.635 206.979 627.136 209.54 634.077 209.54V208.54C627.418 208.54 622.219 206.101 618.421 201.232L617.633 201.847ZM634.077 209.54C640.816 209.54 646.307 207.082 650.507 202.165L649.747 201.515C645.747 206.198 640.539 208.54 634.077 208.54V209.54ZM650.507 202.165C654.706 197.249 656.777 190.571 656.777 182.19H655.777C655.777 190.409 653.748 196.831 649.747 201.515L650.507 202.165ZM656.777 182.19V121.14H655.777V182.19H656.777ZM656.277 121.64H677.427V120.64H656.277V121.64ZM676.927 121.14V183.54H677.927V121.14H676.927ZM676.927 183.54C676.927 197.446 673.106 208.36 665.515 216.345L666.24 217.034C674.049 208.819 677.927 197.634 677.927 183.54H676.927ZM665.513 216.348C658.028 224.325 647.572 228.34 634.077 228.34V229.34C647.782 229.34 658.527 225.255 666.242 217.032L665.513 216.348ZM699.461 227.64H698.961V228.14H699.461V227.64ZM699.461 121.14V120.64H698.961V121.14H699.461ZM766.661 130.89L766.296 131.232L766.302 131.238L766.661 130.89ZM765.461 182.49L765.782 182.873L765.783 182.872L765.461 182.49ZM720.311 191.19V190.69H719.811V191.19H720.311ZM720.311 227.64V228.14H720.811V227.64H720.311ZM720.311 172.44H719.811V172.94H720.311V172.44ZM748.961 168.09L748.636 167.709L748.631 167.714L748.961 168.09ZM749.111 144.24L749.441 143.864L749.111 144.24ZM720.311 139.89V139.39H719.811V139.89H720.311ZM699.961 227.64V121.14H698.961V227.64H699.961ZM699.461 121.64H738.911V120.64H699.461V121.64ZM738.911 121.64C751.228 121.64 760.323 124.867 766.296 131.232L767.025 130.548C760.799 123.913 751.393 120.64 738.911 120.64V121.64ZM766.302 131.238C772.394 137.526 775.461 145.942 775.461 156.54H776.461C776.461 145.738 773.328 137.053 767.02 130.542L766.302 131.238ZM775.461 156.54C775.461 167.832 771.999 176.325 765.139 182.108L765.783 182.872C772.923 176.854 776.461 168.048 776.461 156.54H775.461ZM765.139 182.107C758.356 187.809 748.984 190.69 736.961 190.69V191.69C749.138 191.69 758.766 188.771 765.782 182.873L765.139 182.107ZM736.961 190.69H720.311V191.69H736.961V190.69ZM719.811 191.19V227.64H720.811V191.19H719.811ZM720.311 227.14H699.461V228.14H720.311V227.14ZM720.311 172.94H734.261V171.94H720.311V172.94ZM734.261 172.94C740.825 172.94 745.864 171.477 749.291 168.465L748.631 167.714C745.457 170.503 740.696 171.94 734.261 171.94V172.94ZM749.285 168.47C752.813 165.461 754.561 161.313 754.561 156.09H753.561C753.561 161.067 751.908 164.918 748.636 167.709L749.285 168.47ZM754.561 156.09C754.561 150.968 752.864 146.873 749.441 143.864L748.781 144.615C751.957 147.407 753.561 151.212 753.561 156.09H754.561ZM749.441 143.864C746.021 140.859 741.238 139.39 735.161 139.39V140.39C741.084 140.39 745.601 141.821 748.781 144.615L749.441 143.864ZM735.161 139.39H720.311V140.39H735.161V139.39ZM719.811 139.89V172.44H720.811V139.89H719.811ZM853.997 227.64L853.523 227.8L853.638 228.14H853.997V227.64ZM846.797 206.34L847.271 206.18L847.156 205.84H846.797V206.34ZM805.847 206.34V205.84H805.488L805.373 206.18L805.847 206.34ZM798.647 227.64V228.14H799.006L799.121 227.8L798.647 227.64ZM776.597 227.64L776.128 227.466L775.879 228.14H776.597V227.64ZM816.047 121.14V120.64H815.699L815.578 120.966L816.047 121.14ZM836.297 121.14L836.766 120.965L836.644 120.64H836.297V121.14ZM876.047 227.64V228.14H876.767L876.516 227.465L876.047 227.64ZM811.997 188.34L811.523 188.18L811.301 188.84H811.997V188.34ZM840.647 188.34V188.84H841.346L841.12 188.179L840.647 188.34ZM826.397 146.49L826.87 146.329L826.755 145.99H826.397V146.49ZM826.097 146.49V145.99H825.738L825.623 146.33L826.097 146.49ZM854.471 227.48L847.271 206.18L846.323 206.5L853.523 227.8L854.471 227.48ZM846.797 205.84H805.847V206.84H846.797V205.84ZM805.373 206.18L798.173 227.48L799.121 227.8L806.321 206.5L805.373 206.18ZM798.647 227.14H776.597V228.14H798.647V227.14ZM777.066 227.814L816.516 121.314L815.578 120.966L776.128 227.466L777.066 227.814ZM816.047 121.64H836.297V120.64H816.047V121.64ZM835.829 121.315L875.579 227.815L876.516 227.465L836.766 120.965L835.829 121.315ZM876.047 227.14H853.997V228.14H876.047V227.14ZM811.997 188.84H840.647V187.84H811.997V188.84ZM841.12 188.179L826.87 146.329L825.924 146.651L840.174 188.501L841.12 188.179ZM826.397 145.99H826.097V146.99H826.397V145.99ZM825.623 146.33L811.523 188.18L812.471 188.5L826.571 146.65L825.623 146.33ZM903.298 227.64H902.798V228.14H903.298V227.64ZM903.298 140.04H903.798V139.54H903.298V140.04ZM873.898 140.04H873.398V140.54H873.898V140.04ZM873.898 121.14V120.64H873.398V121.14H873.898ZM953.848 121.14H954.348V120.64H953.848V121.14ZM953.848 140.04V140.54H954.348V140.04H953.848ZM924.298 140.04V139.54H923.798V140.04H924.298ZM924.298 227.64V228.14H924.798V227.64H924.298ZM903.798 227.64V140.04H902.798V227.64H903.798ZM903.298 139.54H873.898V140.54H903.298V139.54ZM874.398 140.04V121.14H873.398V140.04H874.398ZM873.898 121.64H953.848V120.64H873.898V121.64ZM953.348 121.14V140.04H954.348V121.14H953.348ZM953.848 139.54H924.298V140.54H953.848V139.54ZM923.798 140.04V227.64H924.798V140.04H923.798ZM924.298 227.14H903.298V228.14H924.298V227.14ZM969.871 227.64H969.371V228.14H969.871V227.64ZM969.871 121.14V120.64H969.371V121.14H969.871ZM1037.97 121.14H1038.47V120.64H1037.97V121.14ZM1037.97 140.04V140.54H1038.47V140.04H1037.97ZM990.571 140.04V139.54H990.071V140.04H990.571ZM990.571 165.54H990.071V166.04H990.571V165.54ZM1028.52 165.54H1029.02V165.04H1028.52V165.54ZM1028.52 184.14V184.64H1029.02V184.14H1028.52ZM990.571 184.14V183.64H990.071V184.14H990.571ZM990.571 208.89H990.071V209.39H990.571V208.89ZM1041.12 208.89H1041.62V208.39H1041.12V208.89ZM1041.12 227.64V228.14H1041.62V227.64H1041.12ZM970.371 227.64V121.14H969.371V227.64H970.371ZM969.871 121.64H1037.97V120.64H969.871V121.64ZM1037.47 121.14V140.04H1038.47V121.14H1037.47ZM1037.97 139.54H990.571V140.54H1037.97V139.54ZM990.071 140.04V165.54H991.071V140.04H990.071ZM990.571 166.04H1028.52V165.04H990.571V166.04ZM1028.02 165.54V184.14H1029.02V165.54H1028.02ZM1028.52 183.64H990.571V184.64H1028.52V183.64ZM990.071 184.14V208.89H991.071V184.14H990.071ZM990.571 209.39H1041.12V208.39H990.571V209.39ZM1040.62 208.89V227.64H1041.62V208.89H1040.62ZM1041.12 227.14H969.871V228.14H1041.12V227.14ZM1128.51 121.14V120.64H1128.01V121.14H1128.51ZM1149.66 121.14H1150.16V120.64H1149.66V121.14ZM1149.66 227.64V228.14H1150.16V227.64H1149.66ZM1128.06 227.64L1127.65 227.917L1127.79 228.14H1128.06V227.64ZM1081.11 156.99L1081.53 156.713L1081.38 156.49H1081.11V156.99ZM1080.81 156.99V156.49H1080.31V156.99H1080.81ZM1080.81 227.64V228.14H1081.31V227.64H1080.81ZM1059.81 227.64H1059.31V228.14H1059.81V227.64ZM1059.81 121.14V120.64H1059.31V121.14H1059.81ZM1080.81 121.14L1081.23 120.864L1081.08 120.64H1080.81V121.14ZM1128.36 193.14L1127.95 193.415L1128.09 193.64H1128.36V193.14ZM1128.51 193.14V193.64H1129.01V193.14H1128.51ZM1128.51 121.64H1149.66V120.64H1128.51V121.64ZM1149.16 121.14V227.64H1150.16V121.14H1149.16ZM1149.66 227.14H1128.06V228.14H1149.66V227.14ZM1128.48 227.363L1081.53 156.713L1080.7 157.267L1127.65 227.917L1128.48 227.363ZM1081.11 156.49H1080.81V157.49H1081.11V156.49ZM1080.31 156.99V227.64H1081.31V156.99H1080.31ZM1080.81 227.14H1059.81V228.14H1080.81V227.14ZM1060.31 227.64V121.14H1059.31V227.64H1060.31ZM1059.81 121.64H1080.81V120.64H1059.81V121.64ZM1080.4 121.415L1127.95 193.415L1128.78 192.864L1081.23 120.864L1080.4 121.415ZM1128.36 193.64H1128.51V192.64H1128.36V193.64ZM1129.01 193.14V121.14H1128.01V193.14H1129.01ZM272.093 414.64H271.593V415.14H272.093V414.64ZM272.093 308.14V307.64H271.593V308.14H272.093ZM339.293 317.89L338.928 318.232L338.933 318.238L339.293 317.89ZM338.093 369.49L338.414 369.873L338.415 369.872L338.093 369.49ZM292.943 378.19V377.69H292.443V378.19H292.943ZM292.943 414.64V415.14H293.443V414.64H292.943ZM292.943 359.44H292.443V359.94H292.943V359.44ZM321.593 355.09L321.268 354.709L321.263 354.714L321.593 355.09ZM321.743 331.24L322.073 330.864L321.743 331.24ZM292.943 326.89V326.39H292.443V326.89H292.943ZM272.593 414.64V308.14H271.593V414.64H272.593ZM272.093 308.64H311.543V307.64H272.093V308.64ZM311.543 308.64C323.86 308.64 332.955 311.867 338.928 318.232L339.657 317.548C333.43 310.913 324.025 307.64 311.543 307.64V308.64ZM338.933 318.238C345.025 324.526 348.093 332.942 348.093 343.54H349.093C349.093 332.738 345.96 324.053 339.652 317.542L338.933 318.238ZM348.093 343.54C348.093 354.832 344.631 363.325 337.77 369.108L338.415 369.872C345.554 363.854 349.093 355.048 349.093 343.54H348.093ZM337.771 369.107C330.988 374.809 321.615 377.69 309.593 377.69V378.69C321.77 378.69 331.397 375.771 338.414 369.873L337.771 369.107ZM309.593 377.69H292.943V378.69H309.593V377.69ZM292.443 378.19V414.64H293.443V378.19H292.443ZM292.943 414.14H272.093V415.14H292.943V414.14ZM292.943 359.94H306.893V358.94H292.943V359.94ZM306.893 359.94C313.457 359.94 318.496 358.477 321.923 355.465L321.263 354.714C318.089 357.503 313.328 358.94 306.893 358.94V359.94ZM321.917 355.47C325.445 352.461 327.193 348.313 327.193 343.09H326.193C326.193 348.067 324.54 351.918 321.268 354.709L321.917 355.47ZM327.193 343.09C327.193 337.968 325.496 333.873 322.073 330.864L321.413 331.615C324.589 334.407 326.193 338.212 326.193 343.09H327.193ZM322.073 330.864C318.653 327.859 313.869 326.39 307.793 326.39V327.39C313.716 327.39 318.233 328.821 321.413 331.615L322.073 330.864ZM307.793 326.39H292.943V327.39H307.793V326.39ZM292.443 326.89V359.44H293.443V326.89H292.443ZM426.629 414.64L426.155 414.8L426.27 415.14H426.629V414.64ZM419.429 393.34L419.903 393.18L419.788 392.84H419.429V393.34ZM378.479 393.34V392.84H378.12L378.005 393.18L378.479 393.34ZM371.279 414.64V415.14H371.638L371.753 414.8L371.279 414.64ZM349.229 414.64L348.76 414.466L348.51 415.14H349.229V414.64ZM388.679 308.14V307.64H388.331L388.21 307.966L388.679 308.14ZM408.929 308.14L409.397 307.965L409.276 307.64H408.929V308.14ZM448.679 414.64V415.14H449.399L449.147 414.465L448.679 414.64ZM384.629 375.34L384.155 375.18L383.933 375.84H384.629V375.34ZM413.279 375.34V375.84H413.977L413.752 375.179L413.279 375.34ZM399.029 333.49L399.502 333.329L399.387 332.99H399.029V333.49ZM398.729 333.49V332.99H398.37L398.255 333.33L398.729 333.49ZM427.103 414.48L419.903 393.18L418.955 393.5L426.155 414.8L427.103 414.48ZM419.429 392.84H378.479V393.84H419.429V392.84ZM378.005 393.18L370.805 414.48L371.753 414.8L378.953 393.5L378.005 393.18ZM371.279 414.14H349.229V415.14H371.279V414.14ZM349.698 414.814L389.148 308.314L388.21 307.966L348.76 414.466L349.698 414.814ZM388.679 308.64H408.929V307.64H388.679V308.64ZM408.46 308.315L448.21 414.815L449.147 414.465L409.397 307.965L408.46 308.315ZM448.679 414.14H426.629V415.14H448.679V414.14ZM384.629 375.84H413.279V374.84H384.629V375.84ZM413.752 375.179L399.502 333.329L398.556 333.651L412.806 375.501L413.752 375.179ZM399.029 332.99H398.729V333.99H399.029V332.99ZM398.255 333.33L384.155 375.18L385.103 375.5L399.203 333.65L398.255 333.33ZM549.665 308.14V307.64H549.366L549.225 307.903L549.665 308.14ZM570.815 308.14H571.315V307.64H570.815V308.14ZM570.815 414.64V415.14H571.315V414.64H570.815ZM549.965 414.64H549.465V415.14H549.965V414.64ZM549.965 348.49H550.465V347.99H549.965V348.49ZM549.665 348.49V347.99H549.374L549.23 348.244L549.665 348.49ZM523.715 394.39V394.89H524.007L524.15 394.636L523.715 394.39ZM510.065 394.39L509.63 394.636L509.774 394.89H510.065V394.39ZM484.115 348.49L484.55 348.244L484.407 347.99H484.115V348.49ZM483.815 348.49V347.99H483.315V348.49H483.815ZM483.815 414.64V415.14H484.315V414.64H483.815ZM462.815 414.64H462.315V415.14H462.815V414.64ZM462.815 308.14V307.64H462.315V308.14H462.815ZM484.115 308.14L484.555 307.902L484.414 307.64H484.115V308.14ZM516.815 368.74L516.375 368.977L516.517 369.24H516.815V368.74ZM517.115 368.74V369.24H517.414L517.556 368.976L517.115 368.74ZM549.665 308.64H570.815V307.64H549.665V308.64ZM570.315 308.14V414.64H571.315V308.14H570.315ZM570.815 414.14H549.965V415.14H570.815V414.14ZM550.465 414.64V348.49H549.465V414.64H550.465ZM549.965 347.99H549.665V348.99H549.965V347.99ZM549.23 348.244L523.28 394.144L524.15 394.636L550.1 348.736L549.23 348.244ZM523.715 393.89H510.065V394.89H523.715V393.89ZM510.5 394.144L484.55 348.244L483.68 348.736L509.63 394.636L510.5 394.144ZM484.115 347.99H483.815V348.99H484.115V347.99ZM483.315 348.49V414.64H484.315V348.49H483.315ZM483.815 414.14H462.815V415.14H483.815V414.14ZM463.315 414.64V308.14H462.315V414.64H463.315ZM462.815 308.64H484.115V307.64H462.815V308.64ZM483.675 308.377L516.375 368.977L517.255 368.502L484.555 307.902L483.675 308.377ZM516.815 369.24H517.115V368.24H516.815V369.24ZM517.556 368.976L550.106 308.376L549.225 307.903L516.675 368.503L517.556 368.976ZM594.212 414.64H593.712V415.14H594.212V414.64ZM594.212 308.14V307.64H593.712V308.14H594.212ZM662.312 308.14H662.812V307.64H662.312V308.14ZM662.312 327.04V327.54H662.812V327.04H662.312ZM614.912 327.04V326.54H614.412V327.04H614.912ZM614.912 352.54H614.412V353.04H614.912V352.54ZM652.862 352.54H653.362V352.04H652.862V352.54ZM652.862 371.14V371.64H653.362V371.14H652.862ZM614.912 371.14V370.64H614.412V371.14H614.912ZM614.912 395.89H614.412V396.39H614.912V395.89ZM665.462 395.89H665.962V395.39H665.462V395.89ZM665.462 414.64V415.14H665.962V414.64H665.462ZM594.712 414.64V308.14H593.712V414.64H594.712ZM594.212 308.64H662.312V307.64H594.212V308.64ZM661.812 308.14V327.04H662.812V308.14H661.812ZM662.312 326.54H614.912V327.54H662.312V326.54ZM614.412 327.04V352.54H615.412V327.04H614.412ZM614.912 353.04H652.862V352.04H614.912V353.04ZM652.362 352.54V371.14H653.362V352.54H652.362ZM652.862 370.64H614.912V371.64H652.862V370.64ZM614.412 371.14V395.89H615.412V371.14H614.412ZM614.912 396.39H665.462V395.39H614.912V396.39ZM664.962 395.89V414.64H665.962V395.89H664.962ZM665.462 414.14H594.212V415.14H665.462V414.14ZM715.803 371.89L716.22 371.614L716.072 371.39H715.803V371.89ZM715.653 371.89V371.39H715.421L715.271 371.568L715.653 371.89ZM705.153 384.34L704.771 384.018L704.653 384.157V384.34H705.153ZM705.153 414.64V415.14H705.653V414.64H705.153ZM684.153 414.64H683.653V415.14H684.153V414.64ZM684.153 308.14V307.64H683.653V308.14H684.153ZM705.153 308.14H705.653V307.64H705.153V308.14ZM705.153 355.09H704.653V355.59H705.153V355.09ZM705.303 355.09V355.59H705.546L705.696 355.399L705.303 355.09ZM742.203 308.14V307.64H741.96L741.81 307.831L742.203 308.14ZM768.903 308.14L769.287 308.461L769.974 307.64H768.903V308.14ZM729.603 355.09L729.22 354.769L728.977 355.059L729.19 355.371L729.603 355.09ZM770.103 414.64V415.14H771.048L770.517 414.359L770.103 414.64ZM744.153 414.64L743.736 414.916L743.885 415.14H744.153V414.64ZM715.803 371.39H715.653V372.39H715.803V371.39ZM715.271 371.568L704.771 384.018L705.535 384.662L716.035 372.212L715.271 371.568ZM704.653 384.34V414.64H705.653V384.34H704.653ZM705.153 414.14H684.153V415.14H705.153V414.14ZM684.653 414.64V308.14H683.653V414.64H684.653ZM684.153 308.64H705.153V307.64H684.153V308.64ZM704.653 308.14V355.09H705.653V308.14H704.653ZM705.153 355.59H705.303V354.59H705.153V355.59ZM705.696 355.399L742.596 308.449L741.81 307.831L704.91 354.781L705.696 355.399ZM742.203 308.64H768.903V307.64H742.203V308.64ZM768.52 307.819L729.22 354.769L729.987 355.411L769.287 308.461L768.52 307.819ZM729.19 355.371L769.69 414.921L770.517 414.359L730.017 354.809L729.19 355.371ZM770.103 414.14H744.153V415.14H770.103V414.14ZM744.57 414.364L716.22 371.614L715.386 372.166L743.736 414.916L744.57 414.364ZM852.605 414.64L852.132 414.8L852.247 415.14H852.605V414.64ZM845.405 393.34L845.879 393.18L845.764 392.84H845.405V393.34ZM804.455 393.34V392.84H804.097L803.982 393.18L804.455 393.34ZM797.255 414.64V415.14H797.614L797.729 414.8L797.255 414.64ZM775.205 414.64L774.737 414.466L774.487 415.14H775.205V414.64ZM814.655 308.14V307.64H814.307L814.187 307.966L814.655 308.14ZM834.905 308.14L835.374 307.965L835.253 307.64H834.905V308.14ZM874.655 414.64V415.14H875.376L875.124 414.465L874.655 414.64ZM810.605 375.34L810.132 375.18L809.909 375.84H810.605V375.34ZM839.255 375.34V375.84H839.954L839.729 375.179L839.255 375.34ZM825.005 333.49L825.479 333.329L825.363 332.99H825.005V333.49ZM824.705 333.49V332.99H824.346L824.232 333.33L824.705 333.49ZM853.079 414.48L845.879 393.18L844.932 393.5L852.132 414.8L853.079 414.48ZM845.405 392.84H804.455V393.84H845.405V392.84ZM803.982 393.18L796.782 414.48L797.729 414.8L804.929 393.5L803.982 393.18ZM797.255 414.14H775.205V415.14H797.255V414.14ZM775.674 414.814L815.124 308.314L814.187 307.966L774.737 414.466L775.674 414.814ZM814.655 308.64H834.905V307.64H814.655V308.64ZM834.437 308.315L874.187 414.815L875.124 414.465L835.374 307.965L834.437 308.315ZM874.655 414.14H852.605V415.14H874.655V414.14ZM810.605 375.84H839.255V374.84H810.605V375.84ZM839.729 375.179L825.479 333.329L824.532 333.651L838.782 375.501L839.729 375.179ZM825.005 332.99H824.705V333.99H825.005V332.99ZM824.232 333.33L810.132 375.18L811.079 375.5L825.179 333.65L824.232 333.33ZM881.602 399.04L881.213 398.726L880.936 399.069L881.242 399.387L881.602 399.04ZM894.202 383.44L894.581 383.113L894.19 382.66L893.813 383.126L894.202 383.44ZM906.952 393.49L906.733 393.939L906.74 393.943L906.952 393.49ZM932.152 393.79L932.457 394.186L932.466 394.179L932.152 393.79ZM932.002 377.14L931.705 377.542L931.715 377.549L932.002 377.14ZM917.452 370.54L917.285 371.011L917.29 371.013L917.452 370.54ZM905.452 365.74L905.229 366.187L905.24 366.193L905.452 365.74ZM895.552 359.44L895.856 359.043L895.552 359.44ZM887.902 349.99L887.448 350.199L887.902 349.99ZM895.252 315.79L894.922 315.414L895.252 315.79ZM919.552 306.79L919.549 306.29L919.542 306.29L919.552 306.79ZM955.402 320.29L955.8 320.593L956.09 320.213L955.723 319.906L955.402 320.29ZM943.252 336.19L942.932 336.574L943.333 336.908L943.65 336.493L943.252 336.19ZM910.702 328.54L910.392 328.148L910.384 328.154L910.702 328.54ZM907.252 336.34L907.752 336.356L907.752 336.348V336.34H907.252ZM911.002 343.84L910.707 344.244L910.718 344.251L911.002 343.84ZM925.102 350.59L924.918 351.055L924.92 351.056L925.102 350.59ZM946.702 360.49L946.985 360.077L946.982 360.076L946.702 360.49ZM946.702 407.59L946.995 407.995L946.999 407.992L946.702 407.59ZM920.452 415.34C905.493 415.34 892.671 409.798 881.962 398.693L881.242 399.387C892.133 410.681 905.212 416.34 920.452 416.34V415.34ZM881.991 399.354L894.591 383.754L893.813 383.126L881.213 398.726L881.991 399.354ZM893.824 383.767C897.663 388.212 901.966 391.606 906.733 393.939L907.172 393.041C902.539 390.774 898.342 387.468 894.581 383.113L893.824 383.767ZM906.74 393.943C911.497 396.169 916.169 397.29 920.752 397.29V396.29C916.336 396.29 911.808 395.211 907.164 393.037L906.74 393.943ZM920.752 397.29C925.808 397.29 929.735 396.281 932.457 394.186L931.847 393.394C929.37 395.299 925.697 396.29 920.752 396.29V397.29ZM932.466 394.179C935.186 391.982 936.552 389.088 936.552 385.54H935.552C935.552 388.792 934.318 391.398 931.838 393.401L932.466 394.179ZM936.552 385.54C936.552 381.7 935.141 378.737 932.29 376.731L931.715 377.549C934.264 379.343 935.552 381.98 935.552 385.54H936.552ZM932.3 376.738C929.533 374.689 924.619 372.468 917.615 370.067L917.29 371.013C924.286 373.411 929.072 375.591 931.705 377.542L932.3 376.738ZM917.619 370.069C912.829 368.372 908.845 366.778 905.665 365.287L905.24 366.193C908.46 367.702 912.476 369.308 917.285 371.011L917.619 370.069ZM905.676 365.293C902.509 363.709 899.236 361.627 895.856 359.043L895.249 359.837C898.669 362.453 901.996 364.571 905.229 366.187L905.676 365.293ZM895.856 359.043C892.517 356.49 890.021 353.403 888.357 349.781L887.448 350.199C889.184 353.977 891.787 357.19 895.249 359.837L895.856 359.043ZM888.357 349.781C886.692 346.157 885.852 341.981 885.852 337.24H884.852C884.852 342.099 885.713 346.422 887.448 350.199L888.357 349.781ZM885.852 337.24C885.852 328.889 889.086 321.874 895.582 316.165L894.922 315.414C888.218 321.306 884.852 328.591 884.852 337.24H885.852ZM895.582 316.165C902.085 310.451 910.069 307.488 919.563 307.29L919.542 306.29C909.836 306.492 901.619 309.529 894.922 315.414L895.582 316.165ZM919.556 307.29C932.427 307.191 944.264 311.642 955.082 320.674L955.723 319.906C944.741 310.738 932.678 306.189 919.549 306.29L919.556 307.29ZM955.005 319.986L942.855 335.886L943.65 336.493L955.8 320.593L955.005 319.986ZM943.572 335.806C935.129 328.769 927.268 325.19 920.002 325.19V326.19C926.937 326.19 934.576 329.61 942.932 336.574L943.572 335.806ZM920.002 325.19C916.118 325.19 912.9 326.162 910.392 328.148L911.013 328.932C913.305 327.117 916.287 326.19 920.002 326.19V325.19ZM910.384 328.154C907.956 330.16 906.752 332.909 906.752 336.34H907.752C907.752 333.171 908.849 330.72 911.021 328.925L910.384 328.154ZM906.753 336.324C906.647 339.596 907.98 342.251 910.707 344.244L911.297 343.436C908.825 341.629 907.658 339.283 907.752 336.356L906.753 336.324ZM910.718 344.251C913.369 346.086 918.116 348.354 924.918 351.055L925.287 350.125C918.488 347.426 913.836 345.193 911.287 343.429L910.718 344.251ZM924.92 351.056C935.928 355.358 943.076 358.64 946.422 360.904L946.982 360.076C943.529 357.74 936.277 354.421 925.284 350.124L924.92 351.056ZM946.42 360.903C953.872 366.001 957.602 373.39 957.602 383.14H958.602C958.602 373.089 954.733 365.378 946.985 360.077L946.42 360.903ZM957.602 383.14C957.602 393.705 953.859 401.695 946.406 407.187L946.999 407.992C954.745 402.285 958.602 393.974 958.602 383.14H957.602ZM946.409 407.185C938.899 412.62 930.253 415.34 920.452 415.34V416.34C930.451 416.34 939.305 413.56 946.995 407.995L946.409 407.185ZM1042.89 414.64L1042.41 414.8L1042.53 415.14H1042.89V414.64ZM1035.69 393.34L1036.16 393.18L1036.05 392.84H1035.69V393.34ZM994.739 393.34V392.84H994.38L994.265 393.18L994.739 393.34ZM987.539 414.64V415.14H987.897L988.012 414.8L987.539 414.64ZM965.489 414.64L965.02 414.466L964.77 415.14H965.489V414.64ZM1004.94 308.14V307.64H1004.59L1004.47 307.966L1004.94 308.14ZM1025.19 308.14L1025.66 307.965L1025.54 307.64H1025.19V308.14ZM1064.94 414.64V415.14H1065.66L1065.41 414.465L1064.94 414.64ZM1000.89 375.34L1000.41 375.18L1000.19 375.84H1000.89V375.34ZM1029.54 375.34V375.84H1030.24L1030.01 375.179L1029.54 375.34ZM1015.29 333.49L1015.76 333.329L1015.65 332.99H1015.29V333.49ZM1014.99 333.49V332.99H1014.63L1014.51 333.33L1014.99 333.49ZM1043.36 414.48L1036.16 393.18L1035.22 393.5L1042.41 414.8L1043.36 414.48ZM1035.69 392.84H994.739V393.84H1035.69V392.84ZM994.265 393.18L987.065 414.48L988.012 414.8L995.212 393.5L994.265 393.18ZM987.539 414.14H965.489V415.14H987.539V414.14ZM965.958 414.814L1005.41 308.314L1004.47 307.966L965.02 414.466L965.958 414.814ZM1004.94 308.64H1025.19V307.64H1004.94V308.64ZM1024.72 308.315L1064.47 414.815L1065.41 414.465L1025.66 307.965L1024.72 308.315ZM1064.94 414.14H1042.89V415.14H1064.94V414.14ZM1000.89 375.84H1029.54V374.84H1000.89V375.84ZM1030.01 375.179L1015.76 333.329L1014.82 333.651L1029.07 375.501L1030.01 375.179ZM1015.29 332.99H1014.99V333.99H1015.29V332.99ZM1014.51 333.33L1000.41 375.18L1001.36 375.5L1015.46 333.65L1014.51 333.33ZM1147.78 308.14V307.64H1147.28V308.14H1147.78ZM1168.92 308.14H1169.42V307.64H1168.92V308.14ZM1168.92 414.64V415.14H1169.42V414.64H1168.92ZM1147.33 414.64L1146.91 414.917L1147.06 415.14H1147.33V414.64ZM1100.38 343.99L1100.79 343.713L1100.64 343.49H1100.38V343.99ZM1100.08 343.99V343.49H1099.58V343.99H1100.08ZM1100.08 414.64V415.14H1100.58V414.64H1100.08ZM1079.08 414.64H1078.58V415.14H1079.08V414.64ZM1079.08 308.14V307.64H1078.58V308.14H1079.08ZM1100.08 308.14L1100.49 307.864L1100.34 307.64H1100.08V308.14ZM1147.62 380.14L1147.21 380.415L1147.36 380.64H1147.62V380.14ZM1147.78 380.14V380.64H1148.28V380.14H1147.78ZM1147.78 308.64H1168.92V307.64H1147.78V308.64ZM1168.42 308.14V414.64H1169.42V308.14H1168.42ZM1168.92 414.14H1147.33V415.14H1168.92V414.14ZM1147.74 414.363L1100.79 343.713L1099.96 344.267L1146.91 414.917L1147.74 414.363ZM1100.38 343.49H1100.08V344.49H1100.38V343.49ZM1099.58 343.99V414.64H1100.58V343.99H1099.58ZM1100.08 414.14H1079.08V415.14H1100.08V414.14ZM1079.58 414.64V308.14H1078.58V414.64H1079.58ZM1079.08 308.64H1100.08V307.64H1079.08V308.64ZM1099.66 308.415L1147.21 380.415L1148.04 379.864L1100.49 307.864L1099.66 308.415ZM1147.62 380.64H1147.78V379.64H1147.62V380.64ZM1148.28 380.14V308.14H1147.28V380.14H1148.28Z" fill="#999CA0" mask="url(#path-13-outside-1_75_324)"/>
</g>
<defs>
<clipPath id="clip0_75_324">
<rect width="1440" height="788" fill="white"/>
</clipPath>
</defs>
</svg>
