<svg width="21" height="18" viewBox="0 0 21 18" fill="none" xmlns="http://www.w3.org/2000/svg">
<path d="M9.09162 0.421236C9.17065 0.500172 9.23334 0.593912 9.27611 0.697094C9.31888 0.800274 9.3409 0.910874 9.3409 1.02257C9.3409 1.13426 9.31888 1.24486 9.27611 1.34805C9.23334 1.45123 9.17065 1.54496 9.09162 1.6239L2.89238 7.82208L19.5395 7.82208C19.7649 7.82208 19.9811 7.91162 20.1405 8.07102C20.2999 8.23041 20.3894 8.4466 20.3894 8.67202C20.3894 8.89743 20.2999 9.11362 20.1405 9.27301C19.9811 9.43241 19.7649 9.52195 19.5395 9.52195L2.89238 9.52195L9.09162 15.7201C9.2511 15.8796 9.3407 16.0959 9.3407 16.3215C9.3407 16.547 9.2511 16.7633 9.09162 16.9228C8.93214 17.0823 8.71583 17.1719 8.49029 17.1719C8.26475 17.1719 8.04844 17.0823 7.88896 16.9228L0.23951 9.27335C0.160486 9.19441 0.0977953 9.10067 0.0550227 8.99749C0.0122501 8.89431 -0.00976552 8.78371 -0.00976552 8.67202C-0.00976552 8.56032 0.0122501 8.44972 0.0550227 8.34654C0.0977953 8.24336 0.160486 8.14962 0.23951 8.07068L7.88896 0.421236C7.96789 0.342211 8.06163 0.27952 8.16481 0.236748C8.268 0.193976 8.37859 0.171961 8.49029 0.171961C8.60198 0.171961 8.71258 0.193976 8.81577 0.236748C8.91895 0.27952 9.01269 0.342211 9.09162 0.421236Z" fill="#100000"/>
</svg>
