<svg width="21" height="21" viewBox="0 0 21 21" fill="none" xmlns="http://www.w3.org/2000/svg">
<path d="M19.6246 0.53125H1.82461C1.53287 0.53125 1.25308 0.647143 1.04679 0.853433C0.840502 1.05972 0.724609 1.33951 0.724609 1.63125V19.4312C0.724609 19.723 0.840502 20.0028 1.04679 20.2091C1.25308 20.4154 1.53287 20.5312 1.82461 20.5312H11.4046V12.7812H8.80461V9.78125H11.4046V7.53125C11.3508 7.00301 11.4131 6.46938 11.5873 5.96779C11.7615 5.4662 12.0434 5.0088 12.4131 4.62766C12.7828 4.24653 13.2314 3.95089 13.7274 3.76149C14.2235 3.57208 14.755 3.4935 15.2846 3.53125C16.0629 3.52588 16.8409 3.56594 17.6146 3.65125V6.35125H16.0246C14.7646 6.35125 14.5246 6.95125 14.5246 7.82125V9.75125H17.5246L17.1346 12.7513H14.5246V20.5312H19.6246C19.7691 20.5312 19.9121 20.5028 20.0456 20.4475C20.179 20.3922 20.3003 20.3112 20.4024 20.2091C20.5046 20.1069 20.5856 19.9857 20.6409 19.8522C20.6962 19.7187 20.7246 19.5757 20.7246 19.4312V1.63125C20.7246 1.4868 20.6962 1.34376 20.6409 1.2103C20.5856 1.07684 20.5046 0.955577 20.4024 0.853433C20.3003 0.751288 20.179 0.670263 20.0456 0.614983C19.9121 0.559702 19.7691 0.53125 19.6246 0.53125Z" fill="#5755AB"/>
</svg>
