<svg width="19" height="19" viewBox="0 0 19 19" fill="none" xmlns="http://www.w3.org/2000/svg">
<path d="M16.6562 0.671875C17.1867 0.671875 17.6954 0.882589 18.0705 1.25766C18.4455 1.63273 18.6562 2.14144 18.6562 2.67188V16.6719C18.6562 17.2023 18.4455 17.711 18.0705 18.0861C17.6954 18.4612 17.1867 18.6719 16.6562 18.6719H2.65625C2.12582 18.6719 1.61711 18.4612 1.24204 18.0861C0.866964 17.711 0.65625 17.2023 0.65625 16.6719V2.67188C0.65625 2.14144 0.866964 1.63273 1.24204 1.25766C1.61711 0.882589 2.12582 0.671875 2.65625 0.671875H16.6562ZM16.1562 16.1719V10.8719C16.1562 10.0073 15.8128 9.17807 15.2014 8.56671C14.59 7.95534 13.7609 7.61187 12.8962 7.61187C12.0462 7.61187 11.0562 8.13188 10.5763 8.91187V7.80188H7.78625V16.1719H10.5763V11.2419C10.5763 10.4719 11.1963 9.84188 11.9663 9.84188C12.3376 9.84188 12.6936 9.98937 12.9562 10.2519C13.2188 10.5145 13.3663 10.8706 13.3663 11.2419V16.1719H16.1562ZM4.53625 6.23188C4.98181 6.23188 5.40913 6.05488 5.72419 5.73981C6.03925 5.42475 6.21625 4.99744 6.21625 4.55188C6.21625 3.62188 5.46625 2.86188 4.53625 2.86188C4.08803 2.86188 3.65818 3.03993 3.34124 3.35686C3.0243 3.6738 2.84625 4.10366 2.84625 4.55188C2.84625 5.48187 3.60625 6.23188 4.53625 6.23188ZM5.92625 16.1719V7.80188H3.15625V16.1719H5.92625Z" fill="#5755AB"/>
</svg>
