<svg width="375" height="430" viewBox="0 0 375 430" fill="none" xmlns="http://www.w3.org/2000/svg">
<mask id="path-1-outside-1_170_335" maskUnits="userSpaceOnUse" x="-0.136719" y="-0.257812" width="376" height="431" fill="black">
<rect fill="white" x="-0.136719" y="-0.257812" width="376" height="431"/>
<path d="M20.8211 41.3822H20.7251L14.0051 49.3502V68.7422H0.565133V0.582184H14.0051V30.6302H14.1011L37.7171 0.582184H54.8051L29.6531 30.6302L55.5731 68.7422H38.9651L20.8211 41.3822ZM108.375 68.7422L103.767 55.1102H77.5586L72.9506 68.7422H58.8386L84.0866 0.582184H97.0466L122.487 68.7422H108.375ZM81.4946 43.5902H99.8306L90.7106 16.8062H90.5186L81.4946 43.5902ZM168.11 32.5502C172.526 33.6382 175.918 35.6862 178.286 38.6942C180.718 41.7022 181.934 45.4462 181.934 49.9262C181.934 55.5582 180.014 60.1022 176.174 63.5582C172.398 67.0142 166.926 68.7422 159.758 68.7422H131.534V0.582184H156.11C163.342 0.582184 168.846 1.99018 172.622 4.80619C176.462 7.62218 178.382 11.7502 178.382 17.1902C178.382 20.5182 177.55 23.5582 175.886 26.3102C174.222 29.0622 171.63 31.1102 168.11 32.4542V32.5502ZM144.782 12.4862V28.5182H154.478C157.358 28.5182 159.79 27.8462 161.774 26.5022C163.758 25.0942 164.75 23.0782 164.75 20.4542C164.75 15.1422 161.038 12.4862 153.614 12.4862H144.782ZM155.726 56.8382C159.438 56.8382 162.382 56.1022 164.558 54.6302C166.734 53.1582 167.822 51.0142 167.822 48.1982C167.822 45.4462 166.798 43.3022 164.75 41.7662C162.766 40.1662 159.79 39.3662 155.822 39.3662H144.782V56.8382H155.726ZM219.907 69.5102C211.587 69.5102 204.931 66.9822 199.939 61.9262C194.947 56.8062 192.451 49.6702 192.451 40.5182V0.582184H205.987V39.6542C205.987 44.7102 207.203 48.8382 209.635 52.0382C212.131 55.2382 215.555 56.8382 219.907 56.8382C224.131 56.8382 227.555 55.3022 230.179 52.2302C232.803 49.1582 234.115 44.9662 234.115 39.6542V0.582184H247.651V40.5182C247.651 49.4782 245.187 56.5502 240.259 61.7342C235.395 66.9182 228.611 69.5102 219.907 69.5102ZM261.753 68.7422V0.582184H287.001C294.937 0.582184 300.857 2.66218 304.761 6.82218C308.729 10.9182 310.713 16.3902 310.713 23.2382C310.713 30.5342 308.473 36.0702 303.993 39.8462C299.577 43.5582 293.497 45.4142 285.753 45.4142H275.097V68.7422H261.753ZM275.097 33.4142H284.025C288.185 33.4142 291.321 32.4862 293.433 30.6302C295.609 28.7742 296.697 26.2142 296.697 22.9502C296.697 19.7502 295.641 17.2222 293.529 15.3662C291.417 13.5102 288.441 12.5822 284.601 12.5822H275.097V33.4142ZM360.656 68.7422L356.048 55.1102H329.84L325.232 68.7422H311.12L336.368 0.582184H349.328L374.768 68.7422H360.656ZM333.776 43.5902H352.112L342.992 16.8062H342.8L333.776 43.5902ZM110.068 188.742V132.678H91.2518V120.582H142.42V132.678H123.508V188.742H110.068ZM152.675 188.742V120.582H196.259V132.678H165.923V148.998H190.211V160.902H165.923V176.742H198.275V188.742H152.675ZM254.205 120.582H267.741V188.742H253.917L223.869 143.526H223.677V188.742H210.237V120.582H223.677L254.109 166.662H254.205V120.582ZM25.5026 308.742V240.582H50.7506C58.6866 240.582 64.6066 242.662 68.5106 246.822C72.4786 250.918 74.4626 256.39 74.4626 263.238C74.4626 270.534 72.2226 276.07 67.7426 279.846C63.3266 283.558 57.2466 285.414 49.5026 285.414H38.8466V308.742H25.5026ZM38.8466 273.414H47.7746C51.9346 273.414 55.0706 272.486 57.1826 270.63C59.3586 268.774 60.4466 266.214 60.4466 262.95C60.4466 259.75 59.3906 257.222 57.2786 255.366C55.1666 253.51 52.1906 252.582 48.3506 252.582H38.8466V273.414ZM124.406 308.742L119.798 295.11H93.5899L88.9819 308.742H74.8699L100.118 240.582H113.078L138.518 308.742H124.406ZM97.5259 283.59H115.862L106.742 256.806H106.55L97.5259 283.59ZM203.149 240.582H216.685V308.742H203.341V266.406H203.149L186.541 295.782H177.805L161.197 266.406H161.005V308.742H147.565V240.582H161.197L182.125 279.366H182.317L203.149 240.582ZM231.659 308.742V240.582H275.243V252.678H244.907V268.998H269.195V280.902H244.907V296.742H277.259V308.742H231.659ZM309.477 281.382H309.381L302.661 289.35V308.742H289.221V240.582H302.661V270.63H302.757L326.373 240.582H343.461L318.309 270.63L344.229 308.742H327.621L309.477 281.382ZM102.562 428.742L97.9541 415.11H71.7461L67.1381 428.742H53.0261L78.2741 360.582H91.2341L116.674 428.742H102.562ZM75.6821 403.59H94.0181L84.8981 376.806H84.7061L75.6821 403.59ZM145.984 429.51C136.32 429.51 128.032 425.926 121.12 418.758L129.184 408.774C131.616 411.59 134.336 413.734 137.344 415.206C140.352 416.614 143.296 417.318 146.176 417.318C149.376 417.318 151.808 416.678 153.472 415.398C155.136 414.054 155.968 412.294 155.968 410.118C155.968 407.75 155.104 405.958 153.376 404.742C151.648 403.462 148.544 402.054 144.064 400.518C140.992 399.43 138.432 398.406 136.384 397.446C134.336 396.422 132.224 395.078 130.048 393.414C127.872 391.75 126.24 389.734 125.152 387.366C124.064 384.998 123.52 382.278 123.52 379.206C123.52 373.766 125.632 369.19 129.856 365.478C134.08 361.766 139.264 359.846 145.408 359.718C153.728 359.654 161.376 362.534 168.352 368.358L160.576 378.534C155.2 374.054 150.24 371.814 145.696 371.814C143.264 371.814 141.28 372.422 139.744 373.638C138.272 374.854 137.536 376.518 137.536 378.63C137.472 380.614 138.272 382.214 139.936 383.43C141.6 384.582 144.608 386.022 148.96 387.75C156 390.502 160.608 392.614 162.784 394.086C167.648 397.414 170.08 402.246 170.08 408.582C170.08 415.43 167.648 420.646 162.784 424.23C157.92 427.75 152.32 429.51 145.984 429.51ZM224.343 428.742L219.735 415.11H193.527L188.919 428.742H174.807L200.055 360.582H213.015L238.455 428.742H224.343ZM197.463 403.59H215.799L206.679 376.806H206.487L197.463 403.59ZM291.471 360.582H305.007V428.742H291.183L261.135 383.526H260.943V428.742H247.503V360.582H260.943L291.375 406.662H291.471V360.582Z"/>
</mask>
<path d="M20.8211 41.3822L21.2378 41.1058L21.0895 40.8822H20.8211V41.3822ZM20.7251 41.3822V40.8822H20.4927L20.3429 41.0598L20.7251 41.3822ZM14.0051 49.3502L13.6229 49.0278L13.5051 49.1675V49.3502H14.0051ZM14.0051 68.7422V69.2422H14.5051V68.7422H14.0051ZM0.565133 68.7422H0.0651333V69.2422H0.565133V68.7422ZM0.565133 0.582184V0.0821838H0.0651333V0.582184H0.565133ZM14.0051 0.582184H14.5051V0.0821838H14.0051V0.582184ZM14.0051 30.6302H13.5051V31.1302H14.0051V30.6302ZM14.1011 30.6302V31.1302H14.3441L14.4942 30.9392L14.1011 30.6302ZM37.7171 0.582184V0.0821838H37.4742L37.324 0.273218L37.7171 0.582184ZM54.8051 0.582184L55.1885 0.903119L55.8757 0.0821838H54.8051V0.582184ZM29.6531 30.6302L29.2697 30.3093L29.0272 30.599L29.2397 30.9114L29.6531 30.6302ZM55.5731 68.7422V69.2422H56.5179L55.9866 68.461L55.5731 68.7422ZM38.9651 68.7422L38.5484 69.0185L38.6968 69.2422H38.9651V68.7422ZM20.8211 40.8822H20.7251V41.8822H20.8211V40.8822ZM20.3429 41.0598L13.6229 49.0278L14.3874 49.6725L21.1074 41.7045L20.3429 41.0598ZM13.5051 49.3502V68.7422H14.5051V49.3502H13.5051ZM14.0051 68.2422H0.565133V69.2422H14.0051V68.2422ZM1.06513 68.7422V0.582184H0.0651333V68.7422H1.06513ZM0.565133 1.08218H14.0051V0.0821838H0.565133V1.08218ZM13.5051 0.582184V30.6302H14.5051V0.582184H13.5051ZM14.0051 31.1302H14.1011V30.1302H14.0051V31.1302ZM14.4942 30.9392L38.1103 0.89115L37.324 0.273218L13.708 30.3212L14.4942 30.9392ZM37.7171 1.08218H54.8051V0.0821838H37.7171V1.08218ZM54.4217 0.261249L29.2697 30.3093L30.0365 30.9511L55.1885 0.903119L54.4217 0.261249ZM29.2397 30.9114L55.1597 69.0234L55.9866 68.461L30.0666 30.349L29.2397 30.9114ZM55.5731 68.2422H38.9651V69.2422H55.5731V68.2422ZM39.3818 68.4659L21.2378 41.1058L20.4044 41.6585L38.5484 69.0185L39.3818 68.4659ZM108.375 68.7422L107.901 68.9023L108.016 69.2422H108.375V68.7422ZM103.767 55.1102L104.24 54.9501L104.125 54.6102H103.767V55.1102ZM77.5586 55.1102V54.6102H77.1999L77.085 54.9501L77.5586 55.1102ZM72.9506 68.7422V69.2422H73.3094L73.4243 68.9023L72.9506 68.7422ZM58.8386 68.7422L58.3698 68.5685L58.1202 69.2422H58.8386V68.7422ZM84.0866 0.582184V0.0821838H83.7386L83.6178 0.408505L84.0866 0.582184ZM97.0466 0.582184L97.5151 0.407345L97.3937 0.0821838H97.0466V0.582184ZM122.487 68.7422V69.2422H123.207L122.955 68.5673L122.487 68.7422ZM81.4946 43.5902L81.0208 43.4305L80.7986 44.0902H81.4946V43.5902ZM99.8306 43.5902V44.0902H100.529L100.304 43.429L99.8306 43.5902ZM90.7106 16.8062L91.1839 16.645L91.0686 16.3062H90.7106V16.8062ZM90.5186 16.8062V16.3062H90.1595L90.0448 16.6465L90.5186 16.8062ZM108.848 68.5821L104.24 54.9501L103.293 55.2703L107.901 68.9023L108.848 68.5821ZM103.767 54.6102H77.5586V55.6102H103.767V54.6102ZM77.085 54.9501L72.477 68.5821L73.4243 68.9023L78.0323 55.2703L77.085 54.9501ZM72.9506 68.2422H58.8386V69.2422H72.9506V68.2422ZM59.3075 68.9159L84.5555 0.755863L83.6178 0.408505L58.3698 68.5685L59.3075 68.9159ZM84.0866 1.08218H97.0466V0.0821838H84.0866V1.08218ZM96.5782 0.757022L122.018 68.917L122.955 68.5673L97.5151 0.407345L96.5782 0.757022ZM122.487 68.2422H108.375V69.2422H122.487V68.2422ZM81.4946 44.0902H99.8306V43.0902H81.4946V44.0902ZM100.304 43.429L91.1839 16.645L90.2373 16.9674L99.3573 43.7513L100.304 43.429ZM90.7106 16.3062H90.5186V17.3062H90.7106V16.3062ZM90.0448 16.6465L81.0208 43.4305L81.9685 43.7498L90.9925 16.9658L90.0448 16.6465ZM168.11 32.5502H167.61V32.942L167.99 33.0357L168.11 32.5502ZM178.286 38.6942L177.893 39.0035L177.897 39.0085L178.286 38.6942ZM176.174 63.5582L175.839 63.1865L175.836 63.1894L176.174 63.5582ZM131.534 68.7422H131.034V69.2422H131.534V68.7422ZM131.534 0.582184V0.0821838H131.034V0.582184H131.534ZM172.622 4.80619L172.323 5.20701L172.326 5.20939L172.622 4.80619ZM175.886 26.3102L175.458 26.0515L175.458 26.0515L175.886 26.3102ZM168.11 32.4542L167.932 31.9871L167.61 32.1099V32.4542H168.11ZM144.782 12.4862V11.9862H144.282V12.4862H144.782ZM144.782 28.5182H144.282V29.0182H144.782V28.5182ZM161.774 26.5022L162.054 26.9162L162.063 26.9099L161.774 26.5022ZM164.558 54.6302L164.838 55.0443L164.838 55.0443L164.558 54.6302ZM164.75 41.7662L164.436 42.1554L164.443 42.1609L164.45 42.1662L164.75 41.7662ZM144.782 39.3662V38.8662H144.282V39.3662H144.782ZM144.782 56.8382H144.282V57.3382H144.782V56.8382ZM167.99 33.0357C172.319 34.1022 175.606 36.0987 177.893 39.0035L178.679 38.3849C176.23 35.2737 172.733 33.1742 168.229 32.0647L167.99 33.0357ZM177.897 39.0085C180.246 41.9138 181.434 45.5416 181.434 49.9262H182.434C182.434 45.3508 181.19 41.4905 178.675 38.3798L177.897 39.0085ZM181.434 49.9262C181.434 55.4308 179.564 59.8345 175.839 63.1865L176.508 63.9298C180.464 60.3698 182.434 55.6856 182.434 49.9262H181.434ZM175.836 63.1894C172.184 66.5324 166.851 68.2422 159.758 68.2422V69.2422C167.001 69.2422 172.612 67.496 176.511 63.927L175.836 63.1894ZM159.758 68.2422H131.534V69.2422H159.758V68.2422ZM132.034 68.7422V0.582184H131.034V68.7422H132.034ZM131.534 1.08218H156.11V0.0821838H131.534V1.08218ZM156.11 1.08218C163.288 1.08218 168.669 2.48165 172.323 5.207L172.921 4.40537C169.023 1.49872 163.395 0.0821838 156.11 0.0821838V1.08218ZM172.326 5.20939C176.018 7.91682 177.882 11.8835 177.882 17.1902H178.882C178.882 11.6169 176.906 7.32755 172.918 4.40298L172.326 5.20939ZM177.882 17.1902C177.882 20.4303 177.073 23.3803 175.458 26.0515L176.314 26.5689C178.027 23.736 178.882 20.6061 178.882 17.1902H177.882ZM175.458 26.0515C173.861 28.6924 171.366 30.6757 167.932 31.9871L168.288 32.9213C171.894 31.5447 174.583 29.432 176.314 26.5689L175.458 26.0515ZM167.61 32.4542V32.5502H168.61V32.4542H167.61ZM144.282 12.4862V28.5182H145.282V12.4862H144.282ZM144.782 29.0182H154.478V28.0182H144.782V29.0182ZM154.478 29.0182C157.437 29.0182 159.972 28.3267 162.054 26.9161L161.493 26.0882C159.608 27.3657 157.278 28.0182 154.478 28.0182V29.0182ZM162.063 26.9099C164.191 25.3999 165.25 23.2253 165.25 20.4542H164.25C164.25 22.9311 163.325 24.7885 161.485 26.0944L162.063 26.9099ZM165.25 20.4542C165.25 17.6671 164.267 15.5098 162.257 14.0716C160.278 12.6554 157.37 11.9862 153.614 11.9862V12.9862C157.281 12.9862 159.942 13.6449 161.675 14.8848C163.377 16.1026 164.25 17.9293 164.25 20.4542H165.25ZM153.614 11.9862H144.782V12.9862H153.614V11.9862ZM155.726 57.3382C159.498 57.3382 162.552 56.591 164.838 55.0443L164.278 54.216C162.212 55.6134 159.378 56.3382 155.726 56.3382V57.3382ZM164.838 55.0443C167.163 53.4717 168.322 51.166 168.322 48.1982H167.322C167.322 50.8623 166.305 52.8447 164.278 54.216L164.838 55.0443ZM168.322 48.1982C168.322 45.3025 167.234 43.0045 165.05 41.3662L164.45 42.1662C166.361 43.5998 167.322 45.5899 167.322 48.1982H168.322ZM165.064 41.377C162.953 39.675 159.844 38.8662 155.822 38.8662V39.8662C159.736 39.8662 162.579 40.6574 164.436 42.1554L165.064 41.377ZM155.822 38.8662H144.782V39.8662H155.822V38.8662ZM144.282 39.3662V56.8382H145.282V39.3662H144.282ZM144.782 57.3382H155.726V56.3382H144.782V57.3382ZM199.939 61.9262L199.581 62.2752L199.583 62.2775L199.939 61.9262ZM192.451 0.582184V0.0821838H191.951V0.582184H192.451ZM205.987 0.582184H206.487V0.0821838H205.987V0.582184ZM209.635 52.0382L209.237 52.3408L209.241 52.3457L209.635 52.0382ZM230.179 52.2302L229.799 51.9054L229.799 51.9054L230.179 52.2302ZM234.115 0.582184V0.0821838H233.615V0.582184H234.115ZM247.651 0.582184H248.151V0.0821838H247.651V0.582184ZM240.259 61.7342L239.897 61.3897L239.895 61.3921L240.259 61.7342ZM219.907 69.0102C211.696 69.0102 205.177 66.5195 200.295 61.5749L199.583 62.2775C204.685 67.4449 211.478 70.0102 219.907 70.0102V69.0102ZM200.297 61.5771C195.42 56.5746 192.951 49.5779 192.951 40.5182H191.951C191.951 49.7625 194.475 57.0377 199.581 62.2752L200.297 61.5771ZM192.951 40.5182V0.582184H191.951V40.5182H192.951ZM192.451 1.08218H205.987V0.0821838H192.451V1.08218ZM205.487 0.582184V39.6542H206.487V0.582184H205.487ZM205.487 39.6542C205.487 44.7909 206.723 49.0334 209.237 52.3407L210.033 51.7356C207.683 48.643 206.487 44.6295 206.487 39.6542H205.487ZM209.241 52.3457C211.839 55.677 215.414 57.3382 219.907 57.3382V56.3382C215.696 56.3382 212.423 54.7994 210.029 51.7307L209.241 52.3457ZM219.907 57.3382C224.27 57.3382 227.835 55.7438 230.559 52.5549L229.799 51.9054C227.275 54.8606 223.992 56.3382 219.907 56.3382V57.3382ZM230.559 52.5549C233.282 49.3672 234.615 45.0472 234.615 39.6542H233.615C233.615 44.8852 232.324 48.9492 229.799 51.9054L230.559 52.5549ZM234.615 39.6542V0.582184H233.615V39.6542H234.615ZM234.115 1.08218H247.651V0.0821838H234.115V1.08218ZM247.151 0.582184V40.5182H248.151V0.582184H247.151ZM247.151 40.5182C247.151 49.3839 244.716 56.3206 239.897 61.3897L240.622 62.0787C245.659 56.7798 248.151 49.5725 248.151 40.5182H247.151ZM239.895 61.3921C235.146 66.4534 228.506 69.0102 219.907 69.0102V70.0102C228.716 70.0102 235.645 67.383 240.624 62.0763L239.895 61.3921ZM261.753 68.7422H261.253V69.2422H261.753V68.7422ZM261.753 0.582184V0.0821838H261.253V0.582184H261.753ZM304.761 6.82218L304.396 7.16438L304.402 7.17008L304.761 6.82218ZM303.993 39.8462L304.314 40.2289L304.315 40.2285L303.993 39.8462ZM275.097 45.4142V44.9142H274.597V45.4142H275.097ZM275.097 68.7422V69.2422H275.597V68.7422H275.097ZM275.097 33.4142H274.597V33.9142H275.097V33.4142ZM293.433 30.6302L293.108 30.2497L293.103 30.2546L293.433 30.6302ZM293.529 15.3662L293.859 14.9906L293.859 14.9906L293.529 15.3662ZM275.097 12.5822V12.0822H274.597V12.5822H275.097ZM262.253 68.7422V0.582184H261.253V68.7422H262.253ZM261.753 1.08218H287.001V0.0821838H261.753V1.08218ZM287.001 1.08218C294.854 1.08218 300.619 3.13941 304.396 7.16434L305.125 6.48003C301.094 2.18496 295.019 0.0821838 287.001 0.0821838V1.08218ZM304.402 7.17008C308.262 11.1546 310.213 16.4923 310.213 23.2382H311.213C311.213 16.2881 309.196 10.6818 305.12 6.47429L304.402 7.17008ZM310.213 23.2382C310.213 30.4261 308.011 35.8056 303.67 39.4639L304.315 40.2285C308.935 36.3348 311.213 30.6423 311.213 23.2382H310.213ZM303.671 39.4634C299.372 43.0772 293.419 44.9142 285.753 44.9142V45.9142C293.574 45.9142 299.781 44.0392 304.314 40.2289L303.671 39.4634ZM285.753 44.9142H275.097V45.9142H285.753V44.9142ZM274.597 45.4142V68.7422H275.597V45.4142H274.597ZM275.097 68.2422H261.753V69.2422H275.097V68.2422ZM275.097 33.9142H284.025V32.9142H275.097V33.9142ZM284.025 33.9142C288.249 33.9142 291.524 32.9729 293.763 31.0058L293.103 30.2546C291.117 31.9995 288.12 32.9142 284.025 32.9142V33.9142ZM293.757 31.0106C296.061 29.0456 297.197 26.3375 297.197 22.9502H296.197C296.197 26.0909 295.156 28.5028 293.108 30.2498L293.757 31.0106ZM297.197 22.9502C297.197 19.6284 296.094 16.9552 293.859 14.9906L293.199 15.7418C295.187 17.4892 296.197 19.8719 296.197 22.9502H297.197ZM293.859 14.9906C291.627 13.0292 288.517 12.0822 284.601 12.0822V13.0822C288.364 13.0822 291.207 13.9912 293.199 15.7418L293.859 14.9906ZM284.601 12.0822H275.097V13.0822H284.601V12.0822ZM274.597 12.5822V33.4142H275.597V12.5822H274.597ZM360.656 68.7422L360.182 68.9023L360.297 69.2422H360.656V68.7422ZM356.048 55.1102L356.522 54.9501L356.407 54.6102H356.048V55.1102ZM329.84 55.1102V54.6102H329.481L329.366 54.9501L329.84 55.1102ZM325.232 68.7422V69.2422H325.591L325.706 68.9023L325.232 68.7422ZM311.12 68.7422L310.651 68.5685L310.401 69.2422H311.12V68.7422ZM336.368 0.582184V0.0821838H336.02L335.899 0.408505L336.368 0.582184ZM349.328 0.582184L349.796 0.407345L349.675 0.0821838H349.328V0.582184ZM374.768 68.7422V69.2422H375.488L375.236 68.5673L374.768 68.7422ZM333.776 43.5902L333.302 43.4305L333.08 44.0902H333.776V43.5902ZM352.112 43.5902V44.0902H352.81L352.585 43.429L352.112 43.5902ZM342.992 16.8062L343.465 16.645L343.35 16.3062H342.992V16.8062ZM342.8 16.8062V16.3062H342.441L342.326 16.6465L342.8 16.8062ZM361.13 68.5821L356.522 54.9501L355.574 55.2703L360.182 68.9023L361.13 68.5821ZM356.048 54.6102H329.84V55.6102H356.048V54.6102ZM329.366 54.9501L324.758 68.5821L325.706 68.9023L330.314 55.2703L329.366 54.9501ZM325.232 68.2422H311.12V69.2422H325.232V68.2422ZM311.589 68.9159L336.837 0.755863L335.899 0.408505L310.651 68.5685L311.589 68.9159ZM336.368 1.08218H349.328V0.0821838H336.368V1.08218ZM348.859 0.757022L374.299 68.917L375.236 68.5673L349.796 0.407345L348.859 0.757022ZM374.768 68.2422H360.656V69.2422H374.768V68.2422ZM333.776 44.0902H352.112V43.0902H333.776V44.0902ZM352.585 43.429L343.465 16.645L342.519 16.9674L351.639 43.7513L352.585 43.429ZM342.992 16.3062H342.8V17.3062H342.992V16.3062ZM342.326 16.6465L333.302 43.4305L334.25 43.7498L343.274 16.9658L342.326 16.6465ZM110.068 188.742H109.568V189.242H110.068V188.742ZM110.068 132.678H110.568V132.178H110.068V132.678ZM91.2518 132.678H90.7518V133.178H91.2518V132.678ZM91.2518 120.582V120.082H90.7518V120.582H91.2518ZM142.42 120.582H142.92V120.082H142.42V120.582ZM142.42 132.678V133.178H142.92V132.678H142.42ZM123.508 132.678V132.178H123.008V132.678H123.508ZM123.508 188.742V189.242H124.008V188.742H123.508ZM110.568 188.742V132.678H109.568V188.742H110.568ZM110.068 132.178H91.2518V133.178H110.068V132.178ZM91.7518 132.678V120.582H90.7518V132.678H91.7518ZM91.2518 121.082H142.42V120.082H91.2518V121.082ZM141.92 120.582V132.678H142.92V120.582H141.92ZM142.42 132.178H123.508V133.178H142.42V132.178ZM123.008 132.678V188.742H124.008V132.678H123.008ZM123.508 188.242H110.068V189.242H123.508V188.242ZM152.675 188.742H152.175V189.242H152.675V188.742ZM152.675 120.582V120.082H152.175V120.582H152.675ZM196.259 120.582H196.759V120.082H196.259V120.582ZM196.259 132.678V133.178H196.759V132.678H196.259ZM165.923 132.678V132.178H165.423V132.678H165.923ZM165.923 148.998H165.423V149.498H165.923V148.998ZM190.211 148.998H190.711V148.498H190.211V148.998ZM190.211 160.902V161.402H190.711V160.902H190.211ZM165.923 160.902V160.402H165.423V160.902H165.923ZM165.923 176.742H165.423V177.242H165.923V176.742ZM198.275 176.742H198.775V176.242H198.275V176.742ZM198.275 188.742V189.242H198.775V188.742H198.275ZM153.175 188.742V120.582H152.175V188.742H153.175ZM152.675 121.082H196.259V120.082H152.675V121.082ZM195.759 120.582V132.678H196.759V120.582H195.759ZM196.259 132.178H165.923V133.178H196.259V132.178ZM165.423 132.678V148.998H166.423V132.678H165.423ZM165.923 149.498H190.211V148.498H165.923V149.498ZM189.711 148.998V160.902H190.711V148.998H189.711ZM190.211 160.402H165.923V161.402H190.211V160.402ZM165.423 160.902V176.742H166.423V160.902H165.423ZM165.923 177.242H198.275V176.242H165.923V177.242ZM197.775 176.742V188.742H198.775V176.742H197.775ZM198.275 188.242H152.675V189.242H198.275V188.242ZM254.205 120.582V120.082H253.705V120.582H254.205ZM267.741 120.582H268.241V120.082H267.741V120.582ZM267.741 188.742V189.242H268.241V188.742H267.741ZM253.917 188.742L253.501 189.019L253.649 189.242H253.917V188.742ZM223.869 143.526L224.285 143.249L224.137 143.026H223.869V143.526ZM223.677 143.526V143.026H223.177V143.526H223.677ZM223.677 188.742V189.242H224.177V188.742H223.677ZM210.237 188.742H209.737V189.242H210.237V188.742ZM210.237 120.582V120.082H209.737V120.582H210.237ZM223.677 120.582L224.094 120.307L223.946 120.082H223.677V120.582ZM254.109 166.662L253.692 166.938L253.84 167.162H254.109V166.662ZM254.205 166.662V167.162H254.705V166.662H254.205ZM254.205 121.082H267.741V120.082H254.205V121.082ZM267.241 120.582V188.742H268.241V120.582H267.241ZM267.741 188.242H253.917V189.242H267.741V188.242ZM254.333 188.465L224.285 143.249L223.453 143.803L253.501 189.019L254.333 188.465ZM223.869 143.026H223.677V144.026H223.869V143.026ZM223.177 143.526V188.742H224.177V143.526H223.177ZM223.677 188.242H210.237V189.242H223.677V188.242ZM210.737 188.742V120.582H209.737V188.742H210.737ZM210.237 121.082H223.677V120.082H210.237V121.082ZM223.26 120.858L253.692 166.938L254.526 166.387L224.094 120.307L223.26 120.858ZM254.109 167.162H254.205V166.162H254.109V167.162ZM254.705 166.662V120.582H253.705V166.662H254.705ZM25.5026 308.742H25.0026V309.242H25.5026V308.742ZM25.5026 240.582V240.082H25.0026V240.582H25.5026ZM68.5106 246.822L68.146 247.164L68.1515 247.17L68.5106 246.822ZM67.7426 279.846L68.0644 280.229L68.0649 280.228L67.7426 279.846ZM38.8466 285.414V284.914H38.3466V285.414H38.8466ZM38.8466 308.742V309.242H39.3466V308.742H38.8466ZM38.8466 273.414H38.3466V273.914H38.8466V273.414ZM57.1826 270.63L56.8581 270.25L56.8526 270.255L57.1826 270.63ZM57.2786 255.366L57.6087 254.991L57.6087 254.991L57.2786 255.366ZM38.8466 252.582V252.082H38.3466V252.582H38.8466ZM26.0026 308.742V240.582H25.0026V308.742H26.0026ZM25.5026 241.082H50.7506V240.082H25.5026V241.082ZM50.7506 241.082C58.604 241.082 64.3688 243.139 68.146 247.164L68.8752 246.48C64.8445 242.185 58.7693 240.082 50.7506 240.082V241.082ZM68.1515 247.17C72.0115 251.155 73.9626 256.492 73.9626 263.238H74.9626C74.9626 256.288 72.9457 250.682 68.8698 246.474L68.1515 247.17ZM73.9626 263.238C73.9626 270.426 71.7607 275.806 67.4204 279.464L68.0649 280.228C72.6845 276.335 74.9626 270.642 74.9626 263.238H73.9626ZM67.4209 279.463C63.1218 283.077 57.1694 284.914 49.5026 284.914V285.914C57.3238 285.914 63.5315 284.039 68.0644 280.229L67.4209 279.463ZM49.5026 284.914H38.8466V285.914H49.5026V284.914ZM38.3466 285.414V308.742H39.3466V285.414H38.3466ZM38.8466 308.242H25.5026V309.242H38.8466V308.242ZM38.8466 273.914H47.7746V272.914H38.8466V273.914ZM47.7746 273.914C51.9993 273.914 55.2743 272.973 57.5127 271.006L56.8526 270.255C54.867 272 51.87 272.914 47.7746 272.914V273.914ZM57.5071 271.011C59.8109 269.046 60.9466 266.337 60.9466 262.95H59.9466C59.9466 266.091 58.9064 268.503 56.8582 270.25L57.5071 271.011ZM60.9466 262.95C60.9466 259.628 59.8443 256.955 57.6087 254.991L56.9486 255.742C58.937 257.489 59.9466 259.872 59.9466 262.95H60.9466ZM57.6087 254.991C55.3767 253.029 52.2675 252.082 48.3506 252.082V253.082C52.1138 253.082 54.9566 253.991 56.9486 255.742L57.6087 254.991ZM48.3506 252.082H38.8466V253.082H48.3506V252.082ZM38.3466 252.582V273.414H39.3466V252.582H38.3466ZM124.406 308.742L123.932 308.902L124.047 309.242H124.406V308.742ZM119.798 295.11L120.272 294.95L120.157 294.61H119.798V295.11ZM93.5899 295.11V294.61H93.2311L93.1162 294.95L93.5899 295.11ZM88.9819 308.742V309.242H89.3407L89.4556 308.902L88.9819 308.742ZM74.8699 308.742L74.401 308.569L74.1515 309.242H74.8699V308.742ZM100.118 240.582V240.082H99.7699L99.649 240.409L100.118 240.582ZM113.078 240.582L113.546 240.407L113.425 240.082H113.078V240.582ZM138.518 308.742V309.242H139.238L138.986 308.567L138.518 308.742ZM97.5259 283.59L97.0521 283.431L96.8298 284.09H97.5259V283.59ZM115.862 283.59V284.09H116.56L116.335 283.429L115.862 283.59ZM106.742 256.806L107.215 256.645L107.1 256.306H106.742V256.806ZM106.55 256.806V256.306H106.191L106.076 256.647L106.55 256.806ZM124.88 308.582L120.272 294.95L119.324 295.27L123.932 308.902L124.88 308.582ZM119.798 294.61H93.5899V295.61H119.798V294.61ZM93.1162 294.95L88.5082 308.582L89.4556 308.902L94.0636 295.27L93.1162 294.95ZM88.9819 308.242H74.8699V309.242H88.9819V308.242ZM75.3387 308.916L100.587 240.756L99.649 240.409L74.401 308.569L75.3387 308.916ZM100.118 241.082H113.078V240.082H100.118V241.082ZM112.609 240.757L138.049 308.917L138.986 308.567L113.546 240.407L112.609 240.757ZM138.518 308.242H124.406V309.242H138.518V308.242ZM97.5259 284.09H115.862V283.09H97.5259V284.09ZM116.335 283.429L107.215 256.645L106.269 256.967L115.389 283.751L116.335 283.429ZM106.742 256.306H106.55V257.306H106.742V256.306ZM106.076 256.647L97.0521 283.431L97.9997 283.75L107.024 256.966L106.076 256.647ZM203.149 240.582V240.082H202.85L202.709 240.346L203.149 240.582ZM216.685 240.582H217.185V240.082H216.685V240.582ZM216.685 308.742V309.242H217.185V308.742H216.685ZM203.341 308.742H202.841V309.242H203.341V308.742ZM203.341 266.406H203.841V265.906H203.341V266.406ZM203.149 266.406V265.906H202.857L202.714 266.16L203.149 266.406ZM186.541 295.782V296.282H186.833L186.976 296.028L186.541 295.782ZM177.805 295.782L177.37 296.028L177.513 296.282H177.805V295.782ZM161.197 266.406L161.632 266.16L161.489 265.906H161.197V266.406ZM161.005 266.406V265.906H160.505V266.406H161.005ZM161.005 308.742V309.242H161.505V308.742H161.005ZM147.565 308.742H147.065V309.242H147.565V308.742ZM147.565 240.582V240.082H147.065V240.582H147.565ZM161.197 240.582L161.637 240.345L161.495 240.082H161.197V240.582ZM182.125 279.366L181.685 279.604L181.827 279.866H182.125V279.366ZM182.317 279.366V279.866H182.616L182.758 279.603L182.317 279.366ZM203.149 241.082H216.685V240.082H203.149V241.082ZM216.185 240.582V308.742H217.185V240.582H216.185ZM216.685 308.242H203.341V309.242H216.685V308.242ZM203.841 308.742V266.406H202.841V308.742H203.841ZM203.341 265.906H203.149V266.906H203.341V265.906ZM202.714 266.16L186.106 295.536L186.976 296.028L203.584 266.652L202.714 266.16ZM186.541 295.282H177.805V296.282H186.541V295.282ZM178.24 295.536L161.632 266.16L160.762 266.652L177.37 296.028L178.24 295.536ZM161.197 265.906H161.005V266.906H161.197V265.906ZM160.505 266.406V308.742H161.505V266.406H160.505ZM161.005 308.242H147.565V309.242H161.005V308.242ZM148.065 308.742V240.582H147.065V308.742H148.065ZM147.565 241.082H161.197V240.082H147.565V241.082ZM160.757 240.82L181.685 279.604L182.565 279.129L161.637 240.345L160.757 240.82ZM182.125 279.866H182.317V278.866H182.125V279.866ZM182.758 279.603L203.59 240.819L202.709 240.346L181.877 279.13L182.758 279.603ZM231.659 308.742H231.159V309.242H231.659V308.742ZM231.659 240.582V240.082H231.159V240.582H231.659ZM275.243 240.582H275.743V240.082H275.243V240.582ZM275.243 252.678V253.178H275.743V252.678H275.243ZM244.907 252.678V252.178H244.407V252.678H244.907ZM244.907 268.998H244.407V269.498H244.907V268.998ZM269.195 268.998H269.695V268.498H269.195V268.998ZM269.195 280.902V281.402H269.695V280.902H269.195ZM244.907 280.902V280.402H244.407V280.902H244.907ZM244.907 296.742H244.407V297.242H244.907V296.742ZM277.259 296.742H277.759V296.242H277.259V296.742ZM277.259 308.742V309.242H277.759V308.742H277.259ZM232.159 308.742V240.582H231.159V308.742H232.159ZM231.659 241.082H275.243V240.082H231.659V241.082ZM274.743 240.582V252.678H275.743V240.582H274.743ZM275.243 252.178H244.907V253.178H275.243V252.178ZM244.407 252.678V268.998H245.407V252.678H244.407ZM244.907 269.498H269.195V268.498H244.907V269.498ZM268.695 268.998V280.902H269.695V268.998H268.695ZM269.195 280.402H244.907V281.402H269.195V280.402ZM244.407 280.902V296.742H245.407V280.902H244.407ZM244.907 297.242H277.259V296.242H244.907V297.242ZM276.759 296.742V308.742H277.759V296.742H276.759ZM277.259 308.242H231.659V309.242H277.259V308.242ZM309.477 281.382L309.894 281.106L309.746 280.882H309.477V281.382ZM309.381 281.382V280.882H309.149L308.999 281.06L309.381 281.382ZM302.661 289.35L302.279 289.028L302.161 289.167V289.35H302.661ZM302.661 308.742V309.242H303.161V308.742H302.661ZM289.221 308.742H288.721V309.242H289.221V308.742ZM289.221 240.582V240.082H288.721V240.582H289.221ZM302.661 240.582H303.161V240.082H302.661V240.582ZM302.661 270.63H302.161V271.13H302.661V270.63ZM302.757 270.63V271.13H303L303.151 270.939L302.757 270.63ZM326.373 240.582V240.082H326.13L325.98 240.273L326.373 240.582ZM343.461 240.582L343.845 240.903L344.532 240.082H343.461V240.582ZM318.309 270.63L317.926 270.309L317.683 270.599L317.896 270.911L318.309 270.63ZM344.229 308.742V309.242H345.174L344.643 308.461L344.229 308.742ZM327.621 308.742L327.205 309.019L327.353 309.242H327.621V308.742ZM309.477 280.882H309.381V281.882H309.477V280.882ZM308.999 281.06L302.279 289.028L303.044 289.673L309.764 281.705L308.999 281.06ZM302.161 289.35V308.742H303.161V289.35H302.161ZM302.661 308.242H289.221V309.242H302.661V308.242ZM289.721 308.742V240.582H288.721V308.742H289.721ZM289.221 241.082H302.661V240.082H289.221V241.082ZM302.161 240.582V270.63H303.161V240.582H302.161ZM302.661 271.13H302.757V270.13H302.661V271.13ZM303.151 270.939L326.767 240.891L325.98 240.273L302.364 270.321L303.151 270.939ZM326.373 241.082H343.461V240.082H326.373V241.082ZM343.078 240.261L317.926 270.309L318.693 270.951L343.845 240.903L343.078 240.261ZM317.896 270.911L343.816 309.023L344.643 308.461L318.723 270.349L317.896 270.911ZM344.229 308.242H327.621V309.242H344.229V308.242ZM328.038 308.466L309.894 281.106L309.061 281.659L327.205 309.019L328.038 308.466ZM102.562 428.742L102.088 428.902L102.203 429.242H102.562V428.742ZM97.9541 415.11L98.4278 414.95L98.3129 414.61H97.9541V415.11ZM71.7461 415.11V414.61H71.3874L71.2725 414.95L71.7461 415.11ZM67.1381 428.742V429.242H67.4969L67.6118 428.902L67.1381 428.742ZM53.0261 428.742L52.5573 428.569L52.3077 429.242H53.0261V428.742ZM78.2741 360.582V360.082H77.9261L77.8053 360.409L78.2741 360.582ZM91.2341 360.582L91.7026 360.407L91.5812 360.082H91.2341V360.582ZM116.674 428.742V429.242H117.394L117.143 428.567L116.674 428.742ZM75.6821 403.59L75.2083 403.431L74.9861 404.09H75.6821V403.59ZM94.0181 403.59V404.09H94.7166L94.4914 403.429L94.0181 403.59ZM84.8981 376.806L85.3714 376.645L85.2561 376.306H84.8981V376.806ZM84.7061 376.806V376.306H84.347L84.2323 376.647L84.7061 376.806ZM103.036 428.582L98.4278 414.95L97.4805 415.27L102.088 428.902L103.036 428.582ZM97.9541 414.61H71.7461V415.61H97.9541V414.61ZM71.2725 414.95L66.6645 428.582L67.6118 428.902L72.2198 415.27L71.2725 414.95ZM67.1381 428.242H53.0261V429.242H67.1381V428.242ZM53.495 428.916L78.743 360.756L77.8053 360.409L52.5573 428.569L53.495 428.916ZM78.2741 361.082H91.2341V360.082H78.2741V361.082ZM90.7657 360.757L116.206 428.917L117.143 428.567L91.7026 360.407L90.7657 360.757ZM116.674 428.242H102.562V429.242H116.674V428.242ZM75.6821 404.09H94.0181V403.09H75.6821V404.09ZM94.4914 403.429L85.3714 376.645L84.4248 376.967L93.5448 403.751L94.4914 403.429ZM84.8981 376.306H84.7061V377.306H84.8981V376.306ZM84.2323 376.647L75.2083 403.431L76.156 403.75L85.18 376.966L84.2323 376.647ZM121.12 418.758L120.731 418.444L120.454 418.787L120.76 419.105L121.12 418.758ZM129.184 408.774L129.563 408.447L129.171 407.994L128.795 408.46L129.184 408.774ZM137.344 415.206L137.124 415.655L137.132 415.659L137.344 415.206ZM153.472 415.398L153.777 415.795L153.786 415.787L153.472 415.398ZM153.376 404.742L153.078 405.144L153.088 405.151L153.376 404.742ZM144.064 400.518L143.897 400.99L143.902 400.991L144.064 400.518ZM136.384 397.446L136.16 397.894L136.172 397.899L136.384 397.446ZM130.048 393.414L130.352 393.017L130.352 393.017L130.048 393.414ZM125.152 387.366L124.698 387.575L124.698 387.575L125.152 387.366ZM129.856 365.478L129.526 365.103L129.526 365.103L129.856 365.478ZM145.408 359.718L145.404 359.218L145.398 359.218L145.408 359.718ZM168.352 368.358L168.749 368.662L169.04 368.281L168.673 367.974L168.352 368.358ZM160.576 378.534L160.256 378.918L160.657 379.252L160.973 378.838L160.576 378.534ZM139.744 373.638L139.434 373.246L139.426 373.253L139.744 373.638ZM137.536 378.63L138.036 378.646L138.036 378.638V378.63H137.536ZM139.936 383.43L139.641 383.834L139.652 383.841L139.936 383.43ZM148.96 387.75L148.776 388.215L148.778 388.216L148.96 387.75ZM162.784 394.086L163.066 393.674L163.064 393.672L162.784 394.086ZM162.784 424.23L163.077 424.635L163.081 424.633L162.784 424.23ZM145.984 429.01C136.46 429.01 128.301 425.485 121.48 418.411L120.76 419.105C127.763 426.368 136.18 430.01 145.984 430.01V429.01ZM121.509 419.072L129.573 409.088L128.795 408.46L120.731 418.444L121.509 419.072ZM128.806 409.101C131.277 411.962 134.049 414.151 137.124 415.655L137.564 414.757C134.623 413.318 131.955 411.218 129.563 408.447L128.806 409.101ZM137.132 415.659C140.196 417.093 143.212 417.818 146.176 417.818V416.818C143.38 416.818 140.508 416.135 137.556 414.753L137.132 415.659ZM146.176 417.818C149.432 417.818 151.99 417.169 153.777 415.794L153.167 415.002C151.626 416.188 149.321 416.818 146.176 416.818V417.818ZM153.786 415.787C155.57 414.346 156.468 412.442 156.468 410.118H155.468C155.468 412.146 154.702 413.762 153.158 415.009L153.786 415.787ZM156.468 410.118C156.468 407.61 155.543 405.655 153.664 404.333L153.088 405.151C154.666 406.261 155.468 407.89 155.468 410.118H156.468ZM153.674 404.34C151.879 403.011 148.711 401.583 144.226 400.045L143.902 400.991C148.377 402.526 151.417 403.913 153.079 405.144L153.674 404.34ZM144.231 400.047C141.168 398.962 138.625 397.944 136.596 396.993L136.172 397.899C138.24 398.868 140.816 399.898 143.897 400.99L144.231 400.047ZM136.608 396.999C134.593 395.992 132.508 394.665 130.352 393.017L129.744 393.811C131.941 395.491 134.079 396.853 136.161 397.893L136.608 396.999ZM130.352 393.017C128.237 391.4 126.659 389.447 125.606 387.157L124.698 387.575C125.822 390.021 127.507 392.1 129.744 393.811L130.352 393.017ZM125.606 387.157C124.553 384.866 124.02 382.219 124.02 379.206H123.02C123.02 382.337 123.575 385.131 124.698 387.575L125.606 387.157ZM124.02 379.206C124.02 373.915 126.066 369.474 130.186 365.854L129.526 365.103C125.198 368.906 123.02 373.617 123.02 379.206H124.02ZM130.186 365.854C134.313 362.227 139.381 360.344 145.419 360.218L145.398 359.218C139.148 359.349 133.847 361.305 129.526 365.103L130.186 365.854ZM145.412 360.218C153.602 360.155 161.138 362.986 168.032 368.742L168.673 367.974C161.615 362.082 153.854 359.153 145.404 359.218L145.412 360.218ZM167.955 368.055L160.179 378.231L160.973 378.838L168.749 368.662L167.955 368.055ZM160.896 378.15C155.477 373.634 150.406 371.314 145.696 371.314V372.314C150.075 372.314 154.924 374.475 160.256 378.918L160.896 378.15ZM145.696 371.314C143.179 371.314 141.078 371.945 139.434 373.246L140.054 374.03C141.483 372.9 143.349 372.314 145.696 372.314V371.314ZM139.426 373.253C137.826 374.575 137.036 376.387 137.036 378.63H138.036C138.036 376.649 138.719 375.134 140.063 374.024L139.426 373.253ZM137.036 378.614C136.967 380.771 137.85 382.525 139.641 383.834L140.231 383.026C138.694 381.904 137.977 380.458 138.036 378.646L137.036 378.614ZM139.652 383.841C141.367 385.029 144.422 386.486 148.776 388.215L149.145 387.285C144.794 385.558 141.833 384.136 140.221 383.019L139.652 383.841ZM148.778 388.216C155.825 390.971 160.381 393.064 162.504 394.5L163.064 393.672C160.835 392.164 156.175 390.034 149.142 387.285L148.778 388.216ZM162.502 394.499C167.218 397.726 169.58 402.397 169.58 408.582H170.58C170.58 402.096 168.078 397.103 163.066 393.674L162.502 394.499ZM169.58 408.582C169.58 415.296 167.205 420.351 162.488 423.828L163.081 424.633C168.091 420.941 170.58 415.565 170.58 408.582H169.58ZM162.491 423.825C157.717 427.28 152.221 429.01 145.984 429.01V430.01C152.419 430.01 158.123 428.22 163.077 424.635L162.491 423.825ZM224.343 428.742L223.87 428.902L223.985 429.242H224.343V428.742ZM219.735 415.11L220.209 414.95L220.094 414.61H219.735V415.11ZM193.527 415.11V414.61H193.169L193.054 414.95L193.527 415.11ZM188.919 428.742V429.242H189.278L189.393 428.902L188.919 428.742ZM174.807 428.742L174.339 428.569L174.089 429.242H174.807V428.742ZM200.055 360.582V360.082H199.707L199.587 360.409L200.055 360.582ZM213.015 360.582L213.484 360.407L213.362 360.082H213.015V360.582ZM238.455 428.742V429.242H239.176L238.924 428.567L238.455 428.742ZM197.463 403.59L196.99 403.431L196.767 404.09H197.463V403.59ZM215.799 403.59V404.09H216.498L216.273 403.429L215.799 403.59ZM206.679 376.806L207.153 376.645L207.037 376.306H206.679V376.806ZM206.487 376.806V376.306H206.128L206.014 376.647L206.487 376.806ZM224.817 428.582L220.209 414.95L219.262 415.27L223.87 428.902L224.817 428.582ZM219.735 414.61H193.527V415.61H219.735V414.61ZM193.054 414.95L188.446 428.582L189.393 428.902L194.001 415.27L193.054 414.95ZM188.919 428.242H174.807V429.242H188.919V428.242ZM175.276 428.916L200.524 360.756L199.587 360.409L174.339 428.569L175.276 428.916ZM200.055 361.082H213.015V360.082H200.055V361.082ZM212.547 360.757L237.987 428.917L238.924 428.567L213.484 360.407L212.547 360.757ZM238.455 428.242H224.343V429.242H238.455V428.242ZM197.463 404.09H215.799V403.09H197.463V404.09ZM216.273 403.429L207.153 376.645L206.206 376.967L215.326 403.751L216.273 403.429ZM206.679 376.306H206.487V377.306H206.679V376.306ZM206.014 376.647L196.99 403.431L197.937 403.75L206.961 376.966L206.014 376.647ZM291.471 360.582V360.082H290.971V360.582H291.471ZM305.007 360.582H305.507V360.082H305.007V360.582ZM305.007 428.742V429.242H305.507V428.742H305.007ZM291.183 428.742L290.766 429.019L290.915 429.242H291.183V428.742ZM261.135 383.526L261.551 383.249L261.403 383.026H261.135V383.526ZM260.943 383.526V383.026H260.443V383.526H260.943ZM260.943 428.742V429.242H261.443V428.742H260.943ZM247.503 428.742H247.003V429.242H247.503V428.742ZM247.503 360.582V360.082H247.003V360.582H247.503ZM260.943 360.582L261.36 360.307L261.212 360.082H260.943V360.582ZM291.375 406.662L290.957 406.938L291.106 407.162H291.375V406.662ZM291.471 406.662V407.162H291.971V406.662H291.471ZM291.471 361.082H305.007V360.082H291.471V361.082ZM304.507 360.582V428.742H305.507V360.582H304.507ZM305.007 428.242H291.183V429.242H305.007V428.242ZM291.599 428.465L261.551 383.249L260.718 383.803L290.766 429.019L291.599 428.465ZM261.135 383.026H260.943V384.026H261.135V383.026ZM260.443 383.526V428.742H261.443V383.526H260.443ZM260.943 428.242H247.503V429.242H260.943V428.242ZM248.003 428.742V360.582H247.003V428.742H248.003ZM247.503 361.082H260.943V360.082H247.503V361.082ZM260.525 360.858L290.957 406.938L291.792 406.387L261.36 360.307L260.525 360.858ZM291.375 407.162H291.471V406.162H291.375V407.162ZM291.971 406.662V360.582H290.971V406.662H291.971Z" fill="#999CA0" mask="url(#path-1-outside-1_170_335)"/>
</svg>
