<svg width="898" height="295" viewBox="0 0 898 295" fill="none" xmlns="http://www.w3.org/2000/svg">
<mask id="path-1-outside-1_170_336" maskUnits="userSpaceOnUse" x="-0.707031" y="-0.347656" width="899" height="296" fill="black">
<rect fill="white" x="-0.707031" y="-0.347656" width="899" height="296"/>
<path d="M51.2982 63.9023H51.1482L40.6482 76.3523V106.652H19.6482V0.152338H40.6482V47.1023H40.7982L77.6982 0.152338H104.398L65.0982 47.1023L105.598 106.652H79.6482L51.2982 63.9023ZM188.101 106.652L180.901 85.3523H139.951L132.751 106.652H110.701L150.151 0.152338H170.401L210.151 106.652H188.101ZM146.101 67.3523H174.751L160.501 25.5023H160.201L146.101 67.3523ZM281.437 50.1023C288.337 51.8023 293.637 55.0023 297.337 59.7023C301.137 64.4023 303.037 70.2523 303.037 77.2523C303.037 86.0523 300.037 93.1523 294.037 98.5523C288.137 103.952 279.587 106.652 268.387 106.652H224.287V0.152338H262.687C273.987 0.152338 282.587 2.35234 288.487 6.75234C294.487 11.1523 297.487 17.6023 297.487 26.1023C297.487 31.3023 296.187 36.0523 293.587 40.3523C290.987 44.6523 286.937 47.8523 281.437 49.9523V50.1023ZM244.987 18.7523V43.8023H260.137C264.637 43.8023 268.437 42.7523 271.537 40.6523C274.637 38.4523 276.187 35.3023 276.187 31.2023C276.187 22.9023 270.387 18.7523 258.787 18.7523H244.987ZM262.087 88.0523C267.887 88.0523 272.487 86.9023 275.887 84.6023C279.287 82.3023 280.987 78.9523 280.987 74.5523C280.987 70.2523 279.387 66.9023 276.187 64.5023C273.087 62.0023 268.437 60.7523 262.237 60.7523H244.987V88.0523H262.087ZM362.37 107.852C349.37 107.852 338.97 103.902 331.17 96.0023C323.37 88.0023 319.47 76.8523 319.47 62.5523V0.152338H340.62V61.2023C340.62 69.1023 342.52 75.5523 346.32 80.5523C350.22 85.5523 355.57 88.0523 362.37 88.0523C368.97 88.0523 374.32 85.6523 378.42 80.8523C382.52 76.0523 384.57 69.5023 384.57 61.2023V0.152338H405.72V62.5523C405.72 76.5523 401.87 87.6023 394.17 95.7023C386.57 103.802 375.97 107.852 362.37 107.852ZM427.754 106.652V0.152338H467.204C479.604 0.152338 488.854 3.40234 494.954 9.90234C501.154 16.3023 504.254 24.8523 504.254 35.5523C504.254 46.9523 500.754 55.6023 493.754 61.5023C486.854 67.3023 477.354 70.2023 465.254 70.2023H448.604V106.652H427.754ZM448.604 51.4523H462.554C469.054 51.4523 473.954 50.0023 477.254 47.1023C480.654 44.2023 482.354 40.2023 482.354 35.1023C482.354 30.1023 480.704 26.1523 477.404 23.2523C474.104 20.3523 469.454 18.9023 463.454 18.9023H448.604V51.4523ZM582.29 106.652L575.09 85.3523H534.14L526.94 106.652H504.89L544.34 0.152338H564.59L604.34 106.652H582.29ZM540.29 67.3523H568.94L554.69 25.5023H554.39L540.29 67.3523ZM631.591 106.652V19.0523H602.191V0.152338H682.141V19.0523H652.591V106.652H631.591ZM698.164 106.652V0.152338H766.264V19.0523H718.864V44.5523H756.814V63.1523H718.864V87.9023H769.414V106.652H698.164ZM856.805 0.152338H877.955V106.652H856.355L809.405 36.0023H809.105V106.652H788.105V0.152338H809.105L856.655 72.1523H856.805V0.152338ZM0.385547 293.652V187.152H39.8355C52.2356 187.152 61.4856 190.402 67.5856 196.902C73.7855 203.302 76.8855 211.852 76.8855 222.552C76.8855 233.952 73.3855 242.602 66.3855 248.502C59.4856 254.302 49.9856 257.202 37.8855 257.202H21.2355V293.652H0.385547ZM21.2355 238.452H35.1855C41.6855 238.452 46.5856 237.002 49.8856 234.102C53.2856 231.202 54.9856 227.202 54.9856 222.102C54.9856 217.102 53.3356 213.152 50.0355 210.252C46.7355 207.352 42.0855 205.902 36.0855 205.902H21.2355V238.452ZM154.922 293.652L147.722 272.352H106.772L99.5719 293.652H77.5219L116.972 187.152H137.222L176.972 293.652H154.922ZM112.922 254.352H141.572L127.322 212.502H127.022L112.922 254.352ZM277.958 187.152H299.108V293.652H278.258V227.502H277.958L252.008 273.402H238.358L212.408 227.502H212.108V293.652H191.108V187.152H212.408L245.108 247.752H245.408L277.958 187.152ZM322.505 293.652V187.152H390.605V206.052H343.205V231.552H381.155V250.152H343.205V274.902H393.755V293.652H322.505ZM444.096 250.902H443.946L433.446 263.352V293.652H412.446V187.152H433.446V234.102H433.596L470.496 187.152H497.196L457.896 234.102L498.396 293.652H472.446L444.096 250.902ZM580.898 293.652L573.698 272.352H532.748L525.548 293.652H503.498L542.948 187.152H563.198L602.948 293.652H580.898ZM538.898 254.352H567.548L553.298 212.502H552.998L538.898 254.352ZM648.745 294.852C633.645 294.852 620.695 289.252 609.895 278.052L622.495 262.452C626.295 266.852 630.545 270.202 635.245 272.502C639.945 274.702 644.545 275.802 649.045 275.802C654.045 275.802 657.845 274.802 660.445 272.802C663.045 270.702 664.345 267.952 664.345 264.552C664.345 260.852 662.995 258.052 660.295 256.152C657.595 254.152 652.745 251.952 645.745 249.552C640.945 247.852 636.945 246.252 633.745 244.752C630.545 243.152 627.245 241.052 623.845 238.452C620.445 235.852 617.895 232.702 616.195 229.002C614.495 225.302 613.645 221.052 613.645 216.252C613.645 207.752 616.945 200.602 623.545 194.802C630.145 189.002 638.245 186.002 647.845 185.802C660.845 185.702 672.795 190.202 683.695 199.302L671.545 215.202C663.145 208.202 655.395 204.702 648.295 204.702C644.495 204.702 641.395 205.652 638.995 207.552C636.695 209.452 635.545 212.052 635.545 215.352C635.445 218.452 636.695 220.952 639.295 222.852C641.895 224.652 646.595 226.902 653.395 229.602C664.395 233.902 671.595 237.202 674.995 239.502C682.595 244.702 686.395 252.252 686.395 262.152C686.395 272.852 682.595 281.002 674.995 286.602C667.395 292.102 658.645 294.852 648.745 294.852ZM771.182 293.652L763.982 272.352H723.032L715.832 293.652H693.782L733.232 187.152H753.482L793.232 293.652H771.182ZM729.182 254.352H757.832L743.582 212.502H743.282L729.182 254.352ZM876.068 187.152H897.218V293.652H875.618L828.668 223.002H828.368V293.652H807.368V187.152H828.368L875.918 259.152H876.068V187.152Z"/>
</mask>
<path d="M51.2982 63.9023L51.7149 63.626L51.5666 63.4023H51.2982V63.9023ZM51.1482 63.9023V63.4023H50.9159L50.766 63.58L51.1482 63.9023ZM40.6482 76.3523L40.266 76.03L40.1482 76.1696V76.3523H40.6482ZM40.6482 106.652V107.152H41.1482V106.652H40.6482ZM19.6482 106.652H19.1482V107.152H19.6482V106.652ZM19.6482 0.152338V-0.347662H19.1482V0.152338H19.6482ZM40.6482 0.152338H41.1482V-0.347662H40.6482V0.152338ZM40.6482 47.1023H40.1482V47.6023H40.6482V47.1023ZM40.7982 47.1023V47.6023H41.0412L41.1914 47.4113L40.7982 47.1023ZM77.6982 0.152338V-0.347662H77.4553L77.3051 -0.156628L77.6982 0.152338ZM104.398 0.152338L104.782 0.473273L105.469 -0.347662H104.398V0.152338ZM65.0982 47.1023L64.7148 46.7814L64.4723 47.0711L64.6848 47.3835L65.0982 47.1023ZM105.598 106.652V107.152H106.543L106.012 106.371L105.598 106.652ZM79.6482 106.652L79.2315 106.929L79.3799 107.152H79.6482V106.652ZM51.2982 63.4023H51.1482V64.4023H51.2982V63.4023ZM50.766 63.58L40.266 76.03L41.0305 76.6747L51.5305 64.2247L50.766 63.58ZM40.1482 76.3523V106.652H41.1482V76.3523H40.1482ZM40.6482 106.152H19.6482V107.152H40.6482V106.152ZM20.1482 106.652V0.152338H19.1482V106.652H20.1482ZM19.6482 0.652338H40.6482V-0.347662H19.6482V0.652338ZM40.1482 0.152338V47.1023H41.1482V0.152338H40.1482ZM40.6482 47.6023H40.7982V46.6023H40.6482V47.6023ZM41.1914 47.4113L78.0914 0.461304L77.3051 -0.156628L40.4051 46.7934L41.1914 47.4113ZM77.6982 0.652338H104.398V-0.347662H77.6982V0.652338ZM104.015 -0.168597L64.7148 46.7814L65.4817 47.4233L104.782 0.473273L104.015 -0.168597ZM64.6848 47.3835L105.185 106.934L106.012 106.371L65.5117 46.8212L64.6848 47.3835ZM105.598 106.152H79.6482V107.152H105.598V106.152ZM80.0649 106.376L51.7149 63.626L50.8815 64.1787L79.2315 106.929L80.0649 106.376ZM188.101 106.652L187.627 106.812L187.742 107.152H188.101V106.652ZM180.901 85.3523L181.374 85.1922L181.259 84.8523H180.901V85.3523ZM139.951 85.3523V84.8523H139.592L139.477 85.1922L139.951 85.3523ZM132.751 106.652V107.152H133.109L133.224 106.812L132.751 106.652ZM110.701 106.652L110.232 106.479L109.982 107.152H110.701V106.652ZM150.151 0.152338V-0.347662H149.803L149.682 -0.0213407L150.151 0.152338ZM170.401 0.152338L170.869 -0.0225005L170.748 -0.347662H170.401V0.152338ZM210.151 106.652V107.152H210.871L210.619 106.478L210.151 106.652ZM146.101 67.3523L145.627 67.1927L145.405 67.8523H146.101V67.3523ZM174.751 67.3523V67.8523H175.449L175.224 67.1912L174.751 67.3523ZM160.501 25.5023L160.974 25.3412L160.859 25.0023H160.501V25.5023ZM160.201 25.5023V25.0023H159.841L159.727 25.3427L160.201 25.5023ZM188.574 106.492L181.374 85.1922L180.427 85.5125L187.627 106.812L188.574 106.492ZM180.901 84.8523H139.951V85.8523H180.901V84.8523ZM139.477 85.1922L132.277 106.492L133.224 106.812L140.424 85.5125L139.477 85.1922ZM132.751 106.152H110.701V107.152H132.751V106.152ZM111.169 106.826L150.619 0.326017L149.682 -0.0213407L110.232 106.479L111.169 106.826ZM150.151 0.652338H170.401V-0.347662H150.151V0.652338ZM169.932 0.327177L209.682 106.827L210.619 106.478L170.869 -0.0225005L169.932 0.327177ZM210.151 106.152H188.101V107.152H210.151V106.152ZM146.101 67.8523H174.751V66.8523H146.101V67.8523ZM175.224 67.1912L160.974 25.3412L160.027 25.6635L174.277 67.5135L175.224 67.1912ZM160.501 25.0023H160.201V26.0023H160.501V25.0023ZM159.727 25.3427L145.627 67.1927L146.574 67.512L160.674 25.662L159.727 25.3427ZM281.437 50.1023H280.937V50.4941L281.317 50.5878L281.437 50.1023ZM297.337 59.7023L296.944 60.0116L296.948 60.0167L297.337 59.7023ZM294.037 98.5523L293.702 98.1807L293.699 98.1835L294.037 98.5523ZM224.287 106.652H223.787V107.152H224.287V106.652ZM224.287 0.152338V-0.347662H223.787V0.152338H224.287ZM288.487 6.75234L288.188 7.15317L288.191 7.15555L288.487 6.75234ZM293.587 40.3523L293.159 40.0936L293.159 40.0936L293.587 40.3523ZM281.437 49.9523L281.259 49.4852L280.937 49.608V49.9523H281.437ZM244.987 18.7523V18.2523H244.487V18.7523H244.987ZM244.987 43.8023H244.487V44.3023H244.987V43.8023ZM271.537 40.6523L271.817 41.0664L271.826 41.0601L271.537 40.6523ZM275.887 84.6023L276.167 85.0165L276.167 85.0165L275.887 84.6023ZM276.187 64.5023L275.873 64.8915L275.88 64.8971L275.887 64.9023L276.187 64.5023ZM244.987 60.7523V60.2523H244.487V60.7523H244.987ZM244.987 88.0523H244.487V88.5523H244.987V88.0523ZM281.317 50.5878C288.13 52.2664 293.325 55.4148 296.944 60.0116L297.73 59.3931C293.949 54.5899 288.544 51.3383 281.557 49.6169L281.317 50.5878ZM296.948 60.0167C300.665 64.614 302.537 70.3478 302.537 77.2523H303.537C303.537 70.1569 301.609 64.1907 297.726 59.388L296.948 60.0167ZM302.537 77.2523C302.537 85.9249 299.587 92.8847 293.702 98.1807L294.371 98.924C300.487 93.42 303.537 86.1798 303.537 77.2523H302.537ZM293.699 98.1835C287.923 103.471 279.512 106.152 268.387 106.152V107.152C279.662 107.152 288.351 104.434 294.374 98.9212L293.699 98.1835ZM268.387 106.152H224.287V107.152H268.387V106.152ZM224.787 106.652V0.152338H223.787V106.652H224.787ZM224.287 0.652338H262.687V-0.347662H224.287V0.652338ZM262.687 0.652338C273.933 0.652338 282.41 2.84381 288.188 7.15316L288.786 6.35153C282.764 1.86087 274.04 -0.347662 262.687 -0.347662V0.652338ZM288.191 7.15555C294.043 11.447 296.987 17.7356 296.987 26.1023H297.987C297.987 17.4691 294.931 10.8577 288.783 6.34914L288.191 7.15555ZM296.987 26.1023C296.987 31.2145 295.71 35.8745 293.159 40.0936L294.015 40.611C296.664 36.2302 297.987 31.3902 297.987 26.1023H296.987ZM293.159 40.0936C290.626 44.2826 286.673 47.4179 281.259 49.4852L281.615 50.4194C287.201 48.2868 291.348 45.0221 294.015 40.611L293.159 40.0936ZM280.937 49.9523V50.1023H281.937V49.9523H280.937ZM244.487 18.7523V43.8023H245.487V18.7523H244.487ZM244.987 44.3023H260.137V43.3023H244.987V44.3023ZM260.137 44.3023C264.716 44.3023 268.619 43.2329 271.817 41.0663L271.256 40.2384C268.255 42.2718 264.557 43.3023 260.137 43.3023V44.3023ZM271.826 41.0601C275.07 38.758 276.687 35.4494 276.687 31.2023H275.687C275.687 35.1553 274.204 38.1467 271.248 40.2446L271.826 41.0601ZM276.687 31.2023C276.687 26.9213 275.182 23.6434 272.128 21.4582C269.105 19.2951 264.631 18.2523 258.787 18.2523V19.2523C264.542 19.2523 268.769 20.2846 271.546 22.2715C274.292 24.2363 275.687 27.1834 275.687 31.2023H276.687ZM258.787 18.2523H244.987V19.2523H258.787V18.2523ZM262.087 88.5523C267.947 88.5523 272.657 87.3912 276.167 85.0165L275.607 84.1882C272.317 86.4135 267.827 87.5523 262.087 87.5523V88.5523ZM276.167 85.0165C279.716 82.6158 281.487 79.1042 281.487 74.5523H280.487C280.487 78.8005 278.858 81.9889 275.607 84.1882L276.167 85.0165ZM281.487 74.5523C281.487 70.1087 279.823 66.6047 276.487 64.1023L275.887 64.9023C278.95 67.2 280.487 70.396 280.487 74.5523H281.487ZM276.501 64.1131C273.274 61.5111 268.491 60.2523 262.237 60.2523V61.2523C268.383 61.2523 272.9 62.4936 275.873 64.8915L276.501 64.1131ZM262.237 60.2523H244.987V61.2523H262.237V60.2523ZM244.487 60.7523V88.0523H245.487V60.7523H244.487ZM244.987 88.5523H262.087V87.5523H244.987V88.5523ZM331.17 96.0023L330.812 96.3514L330.814 96.3536L331.17 96.0023ZM319.47 0.152338V-0.347662H318.97V0.152338H319.47ZM340.62 0.152338H341.12V-0.347662H340.62V0.152338ZM346.32 80.5523L345.922 80.8549L345.926 80.8599L346.32 80.5523ZM378.42 80.8523L378.04 80.5276L378.04 80.5276L378.42 80.8523ZM384.57 0.152338V-0.347662H384.07V0.152338H384.57ZM405.72 0.152338H406.22V-0.347662H405.72V0.152338ZM394.17 95.7023L393.808 95.3578L393.805 95.3602L394.17 95.7023ZM362.37 107.352C349.479 107.352 339.216 103.44 331.526 95.651L330.814 96.3536C338.724 104.365 349.261 108.352 362.37 108.352V107.352ZM331.528 95.6533C323.843 87.7708 319.97 76.76 319.97 62.5523H318.97C318.97 76.9447 322.898 88.2339 330.812 96.3514L331.528 95.6533ZM319.97 62.5523V0.152338H318.97V62.5523H319.97ZM319.47 0.652338H340.62V-0.347662H319.47V0.652338ZM340.12 0.152338V61.2023H341.12V0.152338H340.12ZM340.12 61.2023C340.12 69.183 342.04 75.7476 345.922 80.8549L346.718 80.2498C343 75.3571 341.12 69.0217 341.12 61.2023H340.12ZM345.926 80.8599C349.928 85.9911 355.429 88.5523 362.37 88.5523V87.5523C355.711 87.5523 350.512 85.1136 346.714 80.2448L345.926 80.8599ZM362.37 88.5523C369.109 88.5523 374.6 86.094 378.8 81.1771L378.04 80.5276C374.04 85.2107 368.831 87.5523 362.37 87.5523V88.5523ZM378.8 81.1771C382.999 76.2613 385.07 69.5834 385.07 61.2023H384.07C384.07 69.4213 382.041 75.8434 378.04 80.5276L378.8 81.1771ZM385.07 61.2023V0.152338H384.07V61.2023H385.07ZM384.57 0.652338H405.72V-0.347662H384.57V0.652338ZM405.22 0.152338V62.5523H406.22V0.152338H405.22ZM405.22 62.5523C405.22 76.4581 401.398 87.3728 393.808 95.3579L394.533 96.0468C402.342 87.8319 406.22 76.6466 406.22 62.5523H405.22ZM393.805 95.3602C386.321 103.338 375.865 107.352 362.37 107.352V108.352C376.075 108.352 386.82 104.267 394.535 96.0445L393.805 95.3602ZM427.754 106.652H427.254V107.152H427.754V106.652ZM427.754 0.152338V-0.347662H427.254V0.152338H427.754ZM494.954 9.90234L494.589 10.2445L494.595 10.2502L494.954 9.90234ZM493.754 61.5023L494.075 61.8851L494.076 61.8847L493.754 61.5023ZM448.604 70.2023V69.7023H448.104V70.2023H448.604ZM448.604 106.652V107.152H449.104V106.652H448.604ZM448.604 51.4523H448.104V51.9523H448.604V51.4523ZM477.254 47.1023L476.929 46.7219L476.924 46.7268L477.254 47.1023ZM477.404 23.2523L477.734 22.8768L477.734 22.8768L477.404 23.2523ZM448.604 18.9023V18.4023H448.104V18.9023H448.604ZM428.254 106.652V0.152338H427.254V106.652H428.254ZM427.754 0.652338H467.204V-0.347662H427.754V0.652338ZM467.204 0.652338C479.521 0.652338 488.616 3.87957 494.589 10.2445L495.318 9.56018C489.092 2.92511 479.686 -0.347662 467.204 -0.347662V0.652338ZM494.595 10.2502C500.687 16.5388 503.754 24.9544 503.754 35.5523H504.754C504.754 24.7502 501.621 16.0659 495.313 9.55444L494.595 10.2502ZM503.754 35.5523C503.754 46.8443 500.292 55.3378 493.431 61.12L494.076 61.8847C501.216 55.8669 504.754 47.0604 504.754 35.5523H503.754ZM493.432 61.1196C486.649 66.8213 477.277 69.7023 465.254 69.7023V70.7023C477.431 70.7023 487.059 67.7833 494.075 61.8851L493.432 61.1196ZM465.254 69.7023H448.604V70.7023H465.254V69.7023ZM448.104 70.2023V106.652H449.104V70.2023H448.104ZM448.604 106.152H427.754V107.152H448.604V106.152ZM448.604 51.9523H462.554V50.9523H448.604V51.9523ZM462.554 51.9523C469.118 51.9523 474.157 50.489 477.584 47.4779L476.924 46.7268C473.75 49.5157 468.989 50.9523 462.554 50.9523V51.9523ZM477.578 47.4828C481.106 44.4737 482.854 40.3257 482.854 35.1023H481.854C481.854 40.079 480.201 43.9309 476.929 46.7219L477.578 47.4828ZM482.854 35.1023C482.854 29.9806 481.157 25.8853 477.734 22.8768L477.074 23.6279C480.25 26.4193 481.854 30.2241 481.854 35.1023H482.854ZM477.734 22.8768C474.314 19.8713 469.531 18.4023 463.454 18.4023V19.4023C469.377 19.4023 473.894 20.8334 477.074 23.6279L477.734 22.8768ZM463.454 18.4023H448.604V19.4023H463.454V18.4023ZM448.104 18.9023V51.4523H449.104V18.9023H448.104ZM582.29 106.652L581.816 106.812L581.931 107.152H582.29V106.652ZM575.09 85.3523L575.564 85.1922L575.449 84.8523H575.09V85.3523ZM534.14 85.3523V84.8523H533.781L533.666 85.1922L534.14 85.3523ZM526.94 106.652V107.152H527.299L527.414 106.812L526.94 106.652ZM504.89 106.652L504.421 106.479L504.172 107.152H504.89V106.652ZM544.34 0.152338V-0.347662H543.992L543.871 -0.0213407L544.34 0.152338ZM564.59 0.152338L565.058 -0.0225005L564.937 -0.347662H564.59V0.152338ZM604.34 106.652V107.152H605.06L604.808 106.478L604.34 106.652ZM540.29 67.3523L539.816 67.1927L539.594 67.8523H540.29V67.3523ZM568.94 67.3523V67.8523H569.638L569.413 67.1912L568.94 67.3523ZM554.69 25.5023L555.163 25.3412L555.048 25.0023H554.69V25.5023ZM554.39 25.5023V25.0023H554.031L553.916 25.3427L554.39 25.5023ZM582.764 106.492L575.564 85.1922L574.616 85.5125L581.816 106.812L582.764 106.492ZM575.09 84.8523H534.14V85.8523H575.09V84.8523ZM533.666 85.1922L526.466 106.492L527.414 106.812L534.614 85.5125L533.666 85.1922ZM526.94 106.152H504.89V107.152H526.94V106.152ZM505.359 106.826L544.809 0.326017L543.871 -0.0213407L504.421 106.479L505.359 106.826ZM544.34 0.652338H564.59V-0.347662H544.34V0.652338ZM564.122 0.327177L603.872 106.827L604.808 106.478L565.058 -0.0225005L564.122 0.327177ZM604.34 106.152H582.29V107.152H604.34V106.152ZM540.29 67.8523H568.94V66.8523H540.29V67.8523ZM569.413 67.1912L555.163 25.3412L554.217 25.6635L568.467 67.5135L569.413 67.1912ZM554.69 25.0023H554.39V26.0023H554.69V25.0023ZM553.916 25.3427L539.816 67.1927L540.764 67.512L554.864 25.662L553.916 25.3427ZM631.591 106.652H631.091V107.152H631.591V106.652ZM631.591 19.0523H632.091V18.5523H631.591V19.0523ZM602.191 19.0523H601.691V19.5523H602.191V19.0523ZM602.191 0.152338V-0.347662H601.691V0.152338H602.191ZM682.141 0.152338H682.641V-0.347662H682.141V0.152338ZM682.141 19.0523V19.5523H682.641V19.0523H682.141ZM652.591 19.0523V18.5523H652.091V19.0523H652.591ZM652.591 106.652V107.152H653.091V106.652H652.591ZM632.091 106.652V19.0523H631.091V106.652H632.091ZM631.591 18.5523H602.191V19.5523H631.591V18.5523ZM602.691 19.0523V0.152338H601.691V19.0523H602.691ZM602.191 0.652338H682.141V-0.347662H602.191V0.652338ZM681.641 0.152338V19.0523H682.641V0.152338H681.641ZM682.141 18.5523H652.591V19.5523H682.141V18.5523ZM652.091 19.0523V106.652H653.091V19.0523H652.091ZM652.591 106.152H631.591V107.152H652.591V106.152ZM698.164 106.652H697.664V107.152H698.164V106.652ZM698.164 0.152338V-0.347662H697.664V0.152338H698.164ZM766.264 0.152338H766.764V-0.347662H766.264V0.152338ZM766.264 19.0523V19.5523H766.764V19.0523H766.264ZM718.864 19.0523V18.5523H718.364V19.0523H718.864ZM718.864 44.5523H718.364V45.0523H718.864V44.5523ZM756.814 44.5523H757.314V44.0523H756.814V44.5523ZM756.814 63.1523V63.6523H757.314V63.1523H756.814ZM718.864 63.1523V62.6523H718.364V63.1523H718.864ZM718.864 87.9023H718.364V88.4023H718.864V87.9023ZM769.414 87.9023H769.914V87.4023H769.414V87.9023ZM769.414 106.652V107.152H769.914V106.652H769.414ZM698.664 106.652V0.152338H697.664V106.652H698.664ZM698.164 0.652338H766.264V-0.347662H698.164V0.652338ZM765.764 0.152338V19.0523H766.764V0.152338H765.764ZM766.264 18.5523H718.864V19.5523H766.264V18.5523ZM718.364 19.0523V44.5523H719.364V19.0523H718.364ZM718.864 45.0523H756.814V44.0523H718.864V45.0523ZM756.314 44.5523V63.1523H757.314V44.5523H756.314ZM756.814 62.6523H718.864V63.6523H756.814V62.6523ZM718.364 63.1523V87.9023H719.364V63.1523H718.364ZM718.864 88.4023H769.414V87.4023H718.864V88.4023ZM768.914 87.9023V106.652H769.914V87.9023H768.914ZM769.414 106.152H698.164V107.152H769.414V106.152ZM856.805 0.152338V-0.347662H856.305V0.152338H856.805ZM877.955 0.152338H878.455V-0.347662H877.955V0.152338ZM877.955 106.652V107.152H878.455V106.652H877.955ZM856.355 106.652L855.939 106.929L856.087 107.152H856.355V106.652ZM809.405 36.0023L809.822 35.7256L809.673 35.5023H809.405V36.0023ZM809.105 36.0023V35.5023H808.605V36.0023H809.105ZM809.105 106.652V107.152H809.605V106.652H809.105ZM788.105 106.652H787.605V107.152H788.105V106.652ZM788.105 0.152338V-0.347662H787.605V0.152338H788.105ZM809.105 0.152338L809.522 -0.123204L809.374 -0.347662H809.105V0.152338ZM856.655 72.1523L856.238 72.4279L856.386 72.6523H856.655V72.1523ZM856.805 72.1523V72.6523H857.305V72.1523H856.805ZM856.805 0.652338H877.955V-0.347662H856.805V0.652338ZM877.455 0.152338V106.652H878.455V0.152338H877.455ZM877.955 106.152H856.355V107.152H877.955V106.152ZM856.772 106.376L809.822 35.7256L808.989 36.2791L855.939 106.929L856.772 106.376ZM809.405 35.5023H809.105V36.5023H809.405V35.5023ZM808.605 36.0023V106.652H809.605V36.0023H808.605ZM809.105 106.152H788.105V107.152H809.105V106.152ZM788.605 106.652V0.152338H787.605V106.652H788.605ZM788.105 0.652338H809.105V-0.347662H788.105V0.652338ZM808.688 0.42788L856.238 72.4279L857.073 71.8768L809.522 -0.123204L808.688 0.42788ZM856.655 72.6523H856.805V71.6523H856.655V72.6523ZM857.305 72.1523V0.152338H856.305V72.1523H857.305ZM0.385547 293.652H-0.114453V294.152H0.385547V293.652ZM0.385547 187.152V186.652H-0.114453V187.152H0.385547ZM67.5856 196.902L67.2209 197.245L67.2264 197.25L67.5856 196.902ZM66.3855 248.502L66.7073 248.885L66.7078 248.885L66.3855 248.502ZM21.2355 257.202V256.702H20.7355V257.202H21.2355ZM21.2355 293.652V294.152H21.7355V293.652H21.2355ZM21.2355 238.452H20.7355V238.952H21.2355V238.452ZM49.8856 234.102L49.561 233.722L49.5555 233.727L49.8856 234.102ZM50.0355 210.252L50.3656 209.877L50.3656 209.877L50.0355 210.252ZM21.2355 205.902V205.402H20.7355V205.902H21.2355ZM0.885547 293.652V187.152H-0.114453V293.652H0.885547ZM0.385547 187.652H39.8355V186.652H0.385547V187.652ZM39.8355 187.652C52.1529 187.652 61.2477 190.88 67.221 197.244L67.9501 196.56C61.7234 189.925 52.3182 186.652 39.8355 186.652V187.652ZM67.2264 197.25C73.3184 203.539 76.3855 211.954 76.3855 222.552H77.3855C77.3855 211.75 74.2527 203.066 67.9447 196.554L67.2264 197.25ZM76.3855 222.552C76.3855 233.844 72.9236 242.338 66.0633 248.12L66.7078 248.885C73.8475 242.867 77.3855 234.06 77.3855 222.552H76.3855ZM66.0638 248.12C59.2807 253.821 49.9084 256.702 37.8855 256.702V257.702C50.0627 257.702 59.6904 254.783 66.7073 248.885L66.0638 248.12ZM37.8855 256.702H21.2355V257.702H37.8855V256.702ZM20.7355 257.202V293.652H21.7355V257.202H20.7355ZM21.2355 293.152H0.385547V294.152H21.2355V293.152ZM21.2355 238.952H35.1855V237.952H21.2355V238.952ZM35.1855 238.952C41.7502 238.952 46.7892 237.489 50.2156 234.478L49.5555 233.727C46.3819 236.516 41.6209 237.952 35.1855 237.952V238.952ZM50.21 234.483C53.7378 231.474 55.4856 227.326 55.4856 222.102H54.4856C54.4856 227.079 52.8333 230.931 49.5611 233.722L50.21 234.483ZM55.4856 222.102C55.4856 216.981 53.7892 212.885 50.3656 209.877L49.7055 210.628C52.8819 213.419 54.4856 217.224 54.4856 222.102H55.4856ZM50.3656 209.877C46.9456 206.871 42.1624 205.402 36.0855 205.402V206.402C42.0087 206.402 46.5255 207.833 49.7055 210.628L50.3656 209.877ZM36.0855 205.402H21.2355V206.402H36.0855V205.402ZM20.7355 205.902V238.452H21.7355V205.902H20.7355ZM154.922 293.652L154.448 293.812L154.563 294.152H154.922V293.652ZM147.722 272.352L148.196 272.192L148.081 271.852H147.722V272.352ZM106.772 272.352V271.852H106.413L106.298 272.192L106.772 272.352ZM99.5719 293.652V294.152H99.9307L100.046 293.812L99.5719 293.652ZM77.5219 293.652L77.053 293.479L76.8035 294.152H77.5219V293.652ZM116.972 187.152V186.652H116.624L116.503 186.979L116.972 187.152ZM137.222 187.152L137.69 186.977L137.569 186.652H137.222V187.152ZM176.972 293.652V294.152H177.692L177.44 293.478L176.972 293.652ZM112.922 254.352L112.448 254.193L112.226 254.852H112.922V254.352ZM141.572 254.352V254.852H142.27L142.045 254.191L141.572 254.352ZM127.322 212.502L127.795 212.341L127.68 212.002H127.322V212.502ZM127.022 212.502V212.002H126.663L126.548 212.343L127.022 212.502ZM155.396 293.492L148.196 272.192L147.248 272.512L154.448 293.812L155.396 293.492ZM147.722 271.852H106.772V272.852H147.722V271.852ZM106.298 272.192L99.0982 293.492L100.046 293.812L107.246 272.512L106.298 272.192ZM99.5719 293.152H77.5219V294.152H99.5719V293.152ZM77.9907 293.826L117.441 187.326L116.503 186.979L77.053 293.479L77.9907 293.826ZM116.972 187.652H137.222V186.652H116.972V187.652ZM136.753 187.327L176.503 293.827L177.44 293.478L137.69 186.977L136.753 187.327ZM176.972 293.152H154.922V294.152H176.972V293.152ZM112.922 254.852H141.572V253.852H112.922V254.852ZM142.045 254.191L127.795 212.341L126.849 212.664L141.099 254.514L142.045 254.191ZM127.322 212.002H127.022V213.002H127.322V212.002ZM126.548 212.343L112.448 254.193L113.396 254.512L127.496 212.662L126.548 212.343ZM277.958 187.152V186.652H277.659L277.518 186.916L277.958 187.152ZM299.108 187.152H299.608V186.652H299.108V187.152ZM299.108 293.652V294.152H299.608V293.652H299.108ZM278.258 293.652H277.758V294.152H278.258V293.652ZM278.258 227.502H278.758V227.002H278.258V227.502ZM277.958 227.502V227.002H277.667L277.523 227.256L277.958 227.502ZM252.008 273.402V273.902H252.3L252.443 273.648L252.008 273.402ZM238.358 273.402L237.923 273.648L238.067 273.902H238.358V273.402ZM212.408 227.502L212.843 227.256L212.7 227.002H212.408V227.502ZM212.108 227.502V227.002H211.608V227.502H212.108ZM212.108 293.652V294.152H212.608V293.652H212.108ZM191.108 293.652H190.608V294.152H191.108V293.652ZM191.108 187.152V186.652H190.608V187.152H191.108ZM212.408 187.152L212.848 186.915L212.707 186.652H212.408V187.152ZM245.108 247.752L244.668 247.99L244.81 248.252H245.108V247.752ZM245.408 247.752V248.252H245.707L245.849 247.989L245.408 247.752ZM277.958 187.652H299.108V186.652H277.958V187.652ZM298.608 187.152V293.652H299.608V187.152H298.608ZM299.108 293.152H278.258V294.152H299.108V293.152ZM278.758 293.652V227.502H277.758V293.652H278.758ZM278.258 227.002H277.958V228.002H278.258V227.002ZM277.523 227.256L251.573 273.156L252.443 273.648L278.393 227.748L277.523 227.256ZM252.008 272.902H238.358V273.902H252.008V272.902ZM238.793 273.156L212.843 227.256L211.973 227.748L237.923 273.648L238.793 273.156ZM212.408 227.002H212.108V228.002H212.408V227.002ZM211.608 227.502V293.652H212.608V227.502H211.608ZM212.108 293.152H191.108V294.152H212.108V293.152ZM191.608 293.652V187.152H190.608V293.652H191.608ZM191.108 187.652H212.408V186.652H191.108V187.652ZM211.968 187.39L244.668 247.99L245.548 247.515L212.848 186.915L211.968 187.39ZM245.108 248.252H245.408V247.252H245.108V248.252ZM245.849 247.989L278.399 187.389L277.518 186.916L244.968 247.516L245.849 247.989ZM322.505 293.652H322.005V294.152H322.505V293.652ZM322.505 187.152V186.652H322.005V187.152H322.505ZM390.605 187.152H391.105V186.652H390.605V187.152ZM390.605 206.052V206.552H391.105V206.052H390.605ZM343.205 206.052V205.552H342.705V206.052H343.205ZM343.205 231.552H342.705V232.052H343.205V231.552ZM381.155 231.552H381.655V231.052H381.155V231.552ZM381.155 250.152V250.652H381.655V250.152H381.155ZM343.205 250.152V249.652H342.705V250.152H343.205ZM343.205 274.902H342.705V275.402H343.205V274.902ZM393.755 274.902H394.255V274.402H393.755V274.902ZM393.755 293.652V294.152H394.255V293.652H393.755ZM323.005 293.652V187.152H322.005V293.652H323.005ZM322.505 187.652H390.605V186.652H322.505V187.652ZM390.105 187.152V206.052H391.105V187.152H390.105ZM390.605 205.552H343.205V206.552H390.605V205.552ZM342.705 206.052V231.552H343.705V206.052H342.705ZM343.205 232.052H381.155V231.052H343.205V232.052ZM380.655 231.552V250.152H381.655V231.552H380.655ZM381.155 249.652H343.205V250.652H381.155V249.652ZM342.705 250.152V274.902H343.705V250.152H342.705ZM343.205 275.402H393.755V274.402H343.205V275.402ZM393.255 274.902V293.652H394.255V274.902H393.255ZM393.755 293.152H322.505V294.152H393.755V293.152ZM444.096 250.902L444.513 250.626L444.364 250.402H444.096V250.902ZM443.946 250.902V250.402H443.714L443.564 250.58L443.946 250.902ZM433.446 263.352L433.064 263.03L432.946 263.17V263.352H433.446ZM433.446 293.652V294.152H433.946V293.652H433.446ZM412.446 293.652H411.946V294.152H412.446V293.652ZM412.446 187.152V186.652H411.946V187.152H412.446ZM433.446 187.152H433.946V186.652H433.446V187.152ZM433.446 234.102H432.946V234.602H433.446V234.102ZM433.596 234.102V234.602H433.839L433.989 234.411L433.596 234.102ZM470.496 187.152V186.652H470.253L470.103 186.843L470.496 187.152ZM497.196 187.152L497.58 187.473L498.267 186.652H497.196V187.152ZM457.896 234.102L457.513 233.781L457.27 234.071L457.483 234.384L457.896 234.102ZM498.396 293.652V294.152H499.341L498.81 293.371L498.396 293.652ZM472.446 293.652L472.029 293.929L472.178 294.152H472.446V293.652ZM444.096 250.402H443.946V251.402H444.096V250.402ZM443.564 250.58L433.064 263.03L433.828 263.675L444.328 251.225L443.564 250.58ZM432.946 263.352V293.652H433.946V263.352H432.946ZM433.446 293.152H412.446V294.152H433.446V293.152ZM412.946 293.652V187.152H411.946V293.652H412.946ZM412.446 187.652H433.446V186.652H412.446V187.652ZM432.946 187.152V234.102H433.946V187.152H432.946ZM433.446 234.602H433.596V233.602H433.446V234.602ZM433.989 234.411L470.889 187.461L470.103 186.843L433.203 233.793L433.989 234.411ZM470.496 187.652H497.196V186.652H470.496V187.652ZM496.813 186.831L457.513 233.781L458.28 234.423L497.58 187.473L496.813 186.831ZM457.483 234.384L497.983 293.934L498.81 293.371L458.31 233.821L457.483 234.384ZM498.396 293.152H472.446V294.152H498.396V293.152ZM472.863 293.376L444.513 250.626L443.679 251.179L472.029 293.929L472.863 293.376ZM580.898 293.652L580.425 293.812L580.54 294.152H580.898V293.652ZM573.698 272.352L574.172 272.192L574.057 271.852H573.698V272.352ZM532.748 272.352V271.852H532.39L532.275 272.192L532.748 272.352ZM525.548 293.652V294.152H525.907L526.022 293.812L525.548 293.652ZM503.498 293.652L503.03 293.479L502.78 294.152H503.498V293.652ZM542.948 187.152V186.652H542.6L542.48 186.979L542.948 187.152ZM563.198 187.152L563.667 186.977L563.546 186.652H563.198V187.152ZM602.948 293.652V294.152H603.669L603.417 293.478L602.948 293.652ZM538.898 254.352L538.425 254.193L538.202 254.852H538.898V254.352ZM567.548 254.352V254.852H568.247L568.022 254.191L567.548 254.352ZM553.298 212.502L553.772 212.341L553.656 212.002H553.298V212.502ZM552.998 212.502V212.002H552.639L552.525 212.343L552.998 212.502ZM581.372 293.492L574.172 272.192L573.225 272.512L580.425 293.812L581.372 293.492ZM573.698 271.852H532.748V272.852H573.698V271.852ZM532.275 272.192L525.075 293.492L526.022 293.812L533.222 272.512L532.275 272.192ZM525.548 293.152H503.498V294.152H525.548V293.152ZM503.967 293.826L543.417 187.326L542.48 186.979L503.03 293.479L503.967 293.826ZM542.948 187.652H563.198V186.652H542.948V187.652ZM562.73 187.327L602.48 293.827L603.417 293.478L563.667 186.977L562.73 187.327ZM602.948 293.152H580.898V294.152H602.948V293.152ZM538.898 254.852H567.548V253.852H538.898V254.852ZM568.022 254.191L553.772 212.341L552.825 212.664L567.075 254.514L568.022 254.191ZM553.298 212.002H552.998V213.002H553.298V212.002ZM552.525 212.343L538.425 254.193L539.372 254.512L553.472 212.662L552.525 212.343ZM609.895 278.052L609.506 277.738L609.229 278.082L609.535 278.399L609.895 278.052ZM622.495 262.452L622.874 262.126L622.482 261.672L622.106 262.138L622.495 262.452ZM635.245 272.502L635.026 272.952L635.033 272.955L635.245 272.502ZM660.445 272.802L660.75 273.199L660.759 273.191L660.445 272.802ZM660.295 256.152L659.998 256.554L660.008 256.561L660.295 256.152ZM645.745 249.552L645.578 250.024L645.583 250.025L645.745 249.552ZM633.745 244.752L633.522 245.2L633.533 245.205L633.745 244.752ZM623.845 238.452L624.149 238.055L624.149 238.055L623.845 238.452ZM616.195 229.002L615.741 229.211L615.741 229.211L616.195 229.002ZM623.545 194.802L623.215 194.427L623.215 194.427L623.545 194.802ZM647.845 185.802L647.841 185.302L647.835 185.302L647.845 185.802ZM683.695 199.302L684.093 199.606L684.383 199.225L684.016 198.919L683.695 199.302ZM671.545 215.202L671.225 215.586L671.626 215.92L671.943 215.506L671.545 215.202ZM638.995 207.552L638.685 207.16L638.677 207.167L638.995 207.552ZM635.545 215.352L636.045 215.368L636.045 215.36V215.352H635.545ZM639.295 222.852L639 223.256L639.011 223.263L639.295 222.852ZM653.395 229.602L653.211 230.067L653.213 230.068L653.395 229.602ZM674.995 239.502L675.278 239.09L675.275 239.088L674.995 239.502ZM674.995 286.602L675.288 287.007L675.292 287.005L674.995 286.602ZM648.745 294.352C633.786 294.352 620.964 288.811 610.255 277.705L609.535 278.399C620.426 289.694 633.505 295.352 648.745 295.352V294.352ZM610.284 278.367L622.884 262.767L622.106 262.138L609.506 277.738L610.284 278.367ZM622.117 262.779C625.956 267.225 630.259 270.619 635.026 272.951L635.465 272.053C630.832 269.786 626.635 266.48 622.874 262.126L622.117 262.779ZM635.033 272.955C639.79 275.182 644.462 276.302 649.045 276.302V275.302C644.629 275.302 640.101 274.223 635.457 272.049L635.033 272.955ZM649.045 276.302C654.101 276.302 658.028 275.293 660.75 273.199L660.14 272.406C657.663 274.312 653.99 275.302 649.045 275.302V276.302ZM660.759 273.191C663.479 270.994 664.845 268.1 664.845 264.552H663.845C663.845 267.804 662.611 270.41 660.131 272.413L660.759 273.191ZM664.845 264.552C664.845 260.712 663.434 257.749 660.583 255.743L660.008 256.561C662.557 258.355 663.845 260.992 663.845 264.552H664.845ZM660.593 255.751C657.826 253.701 652.912 251.481 645.907 249.079L645.583 250.025C652.579 252.424 657.364 254.604 659.998 256.554L660.593 255.751ZM645.912 249.081C641.122 247.384 637.138 245.79 633.958 244.3L633.533 245.205C636.753 246.714 640.769 248.32 645.578 250.024L645.912 249.081ZM633.969 244.305C630.802 242.722 627.529 240.64 624.149 238.055L623.542 238.85C626.962 241.465 630.289 243.583 633.522 245.2L633.969 244.305ZM624.149 238.055C620.81 235.502 618.314 232.416 616.65 228.794L615.741 229.211C617.477 232.989 620.08 236.203 623.542 238.85L624.149 238.055ZM616.65 228.794C614.985 225.17 614.145 220.993 614.145 216.252H613.145C613.145 221.112 614.006 225.435 615.741 229.211L616.65 228.794ZM614.145 216.252C614.145 207.902 617.379 200.887 623.875 195.178L623.215 194.427C616.511 200.318 613.145 207.603 613.145 216.252H614.145ZM623.875 195.178C630.378 189.463 638.362 186.5 647.856 186.302L647.835 185.302C638.129 185.505 629.912 188.542 623.215 194.427L623.875 195.178ZM647.849 186.302C660.719 186.203 672.557 190.655 683.375 199.686L684.016 198.919C673.034 189.75 660.971 185.201 647.841 185.302L647.849 186.302ZM683.298 198.999L671.148 214.899L671.943 215.506L684.093 199.606L683.298 198.999ZM671.865 214.818C663.422 207.782 655.561 204.202 648.295 204.202V205.202C655.23 205.202 662.869 208.623 671.225 215.586L671.865 214.818ZM648.295 204.202C644.411 204.202 641.193 205.175 638.685 207.16L639.306 207.944C641.598 206.13 644.58 205.202 648.295 205.202V204.202ZM638.677 207.167C636.249 209.173 635.045 211.921 635.045 215.352H636.045C636.045 212.184 637.142 209.732 639.314 207.938L638.677 207.167ZM635.046 215.336C634.94 218.609 636.273 221.263 639 223.256L639.59 222.449C637.118 220.642 635.951 218.296 636.045 215.368L635.046 215.336ZM639.011 223.263C641.662 225.099 646.409 227.366 653.211 230.067L653.58 229.138C646.781 226.438 642.129 224.206 639.58 222.441L639.011 223.263ZM653.213 230.068C664.221 234.371 671.369 237.653 674.715 239.916L675.275 239.088C671.822 236.752 664.57 233.434 653.577 229.137L653.213 230.068ZM674.713 239.915C682.165 245.014 685.895 252.403 685.895 262.152H686.895C686.895 252.102 683.026 244.391 675.278 239.09L674.713 239.915ZM685.895 262.152C685.895 272.718 682.152 280.708 674.699 286.2L675.292 287.005C683.038 281.297 686.895 272.987 686.895 262.152H685.895ZM674.702 286.197C667.192 291.632 658.546 294.352 648.745 294.352V295.352C658.744 295.352 667.598 292.573 675.288 287.007L674.702 286.197ZM771.182 293.652L770.708 293.812L770.823 294.152H771.182V293.652ZM763.982 272.352L764.455 272.192L764.34 271.852H763.982V272.352ZM723.032 272.352V271.852H722.673L722.558 272.192L723.032 272.352ZM715.832 293.652V294.152H716.19L716.305 293.812L715.832 293.652ZM693.782 293.652L693.313 293.479L693.063 294.152H693.782V293.652ZM733.232 187.152V186.652H732.884L732.763 186.979L733.232 187.152ZM753.482 187.152L753.95 186.977L753.829 186.652H753.482V187.152ZM793.232 293.652V294.152H793.952L793.7 293.478L793.232 293.652ZM729.182 254.352L728.708 254.193L728.486 254.852H729.182V254.352ZM757.832 254.352V254.852H758.53L758.305 254.191L757.832 254.352ZM743.582 212.502L744.055 212.341L743.94 212.002H743.582V212.502ZM743.282 212.502V212.002H742.922L742.808 212.343L743.282 212.502ZM771.655 293.492L764.455 272.192L763.508 272.512L770.708 293.812L771.655 293.492ZM763.982 271.852H723.032V272.852H763.982V271.852ZM722.558 272.192L715.358 293.492L716.305 293.812L723.505 272.512L722.558 272.192ZM715.832 293.152H693.782V294.152H715.832V293.152ZM694.251 293.826L733.701 187.326L732.763 186.979L693.313 293.479L694.251 293.826ZM733.232 187.652H753.482V186.652H733.232V187.652ZM753.013 187.327L792.763 293.827L793.7 293.478L753.95 186.977L753.013 187.327ZM793.232 293.152H771.182V294.152H793.232V293.152ZM729.182 254.852H757.832V253.852H729.182V254.852ZM758.305 254.191L744.055 212.341L743.108 212.664L757.358 254.514L758.305 254.191ZM743.582 212.002H743.282V213.002H743.582V212.002ZM742.808 212.343L728.708 254.193L729.655 254.512L743.755 212.662L742.808 212.343ZM876.068 187.152V186.652H875.568V187.152H876.068ZM897.218 187.152H897.718V186.652H897.218V187.152ZM897.218 293.652V294.152H897.718V293.652H897.218ZM875.618 293.652L875.202 293.929L875.35 294.152H875.618V293.652ZM828.668 223.002L829.084 222.726L828.936 222.502H828.668V223.002ZM828.368 223.002V222.502H827.868V223.002H828.368ZM828.368 293.652V294.152H828.868V293.652H828.368ZM807.368 293.652H806.868V294.152H807.368V293.652ZM807.368 187.152V186.652H806.868V187.152H807.368ZM828.368 187.152L828.785 186.877L828.637 186.652H828.368V187.152ZM875.918 259.152L875.501 259.428L875.649 259.652H875.918V259.152ZM876.068 259.152V259.652H876.568V259.152H876.068ZM876.068 187.652H897.218V186.652H876.068V187.652ZM896.718 187.152V293.652H897.718V187.152H896.718ZM897.218 293.152H875.618V294.152H897.218V293.152ZM876.034 293.376L829.084 222.726L828.252 223.279L875.202 293.929L876.034 293.376ZM828.668 222.502H828.368V223.502H828.668V222.502ZM827.868 223.002V293.652H828.868V223.002H827.868ZM828.368 293.152H807.368V294.152H828.368V293.152ZM807.868 293.652V187.152H806.868V293.652H807.868ZM807.368 187.652H828.368V186.652H807.368V187.652ZM827.951 187.428L875.501 259.428L876.335 258.877L828.785 186.877L827.951 187.428ZM875.918 259.652H876.068V258.652H875.918V259.652ZM876.568 259.152V187.152H875.568V259.152H876.568Z" fill="#999CA0" mask="url(#path-1-outside-1_170_336)"/>
</svg>
