<svg width="19" height="16" viewBox="0 0 19 16" fill="none" xmlns="http://www.w3.org/2000/svg">
<path d="M1.48958 1.23021L2.55625 0.171875L16.4896 14.1052L15.4313 15.1719L12.8646 12.6052C11.9062 12.9219 10.8896 13.0885 9.82292 13.0885C5.65625 13.0885 2.09792 10.4969 0.65625 6.83854C1.23125 5.37187 2.14792 4.08021 3.31458 3.05521L1.48958 1.23021ZM9.82292 4.33854C10.486 4.33854 11.1218 4.60193 11.5907 5.07077C12.0595 5.53962 12.3229 6.1755 12.3229 6.83854C12.3233 7.12235 12.2754 7.40415 12.1813 7.67188L8.98958 4.48021C9.25731 4.38603 9.53911 4.33812 9.82292 4.33854ZM9.82292 0.588542C13.9896 0.588542 17.5479 3.18021 18.9896 6.83854C18.3091 8.56599 17.1534 10.0655 15.6563 11.1635L14.4729 9.97188C15.6254 9.17475 16.5548 8.09613 17.1729 6.83854C16.4993 5.46343 15.4534 4.3049 14.1541 3.49467C12.8547 2.68444 11.3542 2.25501 9.82292 2.25521C8.91458 2.25521 8.02292 2.40521 7.18958 2.67188L5.90625 1.39687C7.10625 0.880208 8.43125 0.588542 9.82292 0.588542ZM2.47292 6.83854C3.14654 8.21365 4.19246 9.37218 5.49178 10.1824C6.7911 10.9926 8.29168 11.4221 9.82292 11.4219C10.3979 11.4219 10.9646 11.3635 11.4896 11.2469L9.58958 9.33854C9.00972 9.27639 8.4686 9.0176 8.05623 8.60523C7.64385 8.19285 7.38507 7.65174 7.32292 7.07187L4.48958 4.23021C3.66458 4.93854 2.97292 5.82187 2.47292 6.83854Z" fill="black"/>
</svg>
