<svg width="21" height="21" viewBox="0 0 21 21" fill="none" xmlns="http://www.w3.org/2000/svg">
<path d="M11.7747 0.53125C12.8997 0.53425 13.4707 0.54025 13.9637 0.55425L14.1577 0.56125C14.3817 0.56925 14.6027 0.57925 14.8697 0.59125C15.9337 0.64125 16.6597 0.80925 17.2967 1.05625C17.9567 1.31025 18.5127 1.65425 19.0687 2.20925C19.5774 2.70898 19.9708 3.31372 20.2217 3.98125C20.4687 4.61825 20.6367 5.34425 20.6867 6.40925C20.6987 6.67525 20.7087 6.89625 20.7167 7.12125L20.7227 7.31525C20.7377 7.80725 20.7437 8.37825 20.7457 9.50325L20.7467 10.2493V11.5592C20.7491 12.2887 20.7414 13.0181 20.7237 13.7472L20.7177 13.9412C20.7097 14.1663 20.6997 14.3872 20.6877 14.6532C20.6377 15.7183 20.4677 16.4432 20.2217 17.0812C19.9708 17.7488 19.5774 18.3535 19.0687 18.8533C18.5689 19.3619 17.9642 19.7554 17.2967 20.0063C16.6597 20.2533 15.9337 20.4213 14.8697 20.4713L14.1577 20.5012L13.9637 20.5072C13.4707 20.5212 12.8997 20.5282 11.7747 20.5303L11.0287 20.5312H9.71966C8.98992 20.5338 8.26019 20.5262 7.53066 20.5082L7.33666 20.5023C7.09927 20.4933 6.86194 20.4829 6.62466 20.4713C5.56066 20.4213 4.83466 20.2533 4.19666 20.0063C3.52949 19.7553 2.92511 19.3618 2.42566 18.8533C1.91661 18.3536 1.52277 17.7489 1.27166 17.0812C1.02466 16.4442 0.856662 15.7183 0.806662 14.6532L0.776663 13.9412L0.771663 13.7472C0.753229 13.0181 0.744894 12.2887 0.746663 11.5592V9.50325C0.743895 8.77385 0.751229 8.04445 0.768663 7.31525L0.775663 7.12125C0.783663 6.89625 0.793663 6.67525 0.805663 6.40925C0.855663 5.34425 1.02366 4.61925 1.27066 3.98125C1.52236 3.31345 1.91689 2.70869 2.42666 2.20925C2.92582 1.7008 3.52985 1.30732 4.19666 1.05625C4.83466 0.80925 5.55966 0.64125 6.62466 0.59125C6.89066 0.57925 7.11266 0.56925 7.33666 0.56125L7.53066 0.55525C8.25986 0.537483 8.98926 0.529815 9.71866 0.53225L11.7747 0.53125ZM10.7467 5.53125C9.42058 5.53125 8.14881 6.05803 7.21113 6.99572C6.27345 7.9334 5.74666 9.20517 5.74666 10.5312C5.74666 11.8573 6.27345 13.1291 7.21113 14.0668C8.14881 15.0045 9.42058 15.5312 10.7467 15.5312C12.0727 15.5312 13.3445 15.0045 14.2822 14.0668C15.2199 13.1291 15.7467 11.8573 15.7467 10.5312C15.7467 9.20517 15.2199 7.9334 14.2822 6.99572C13.3445 6.05803 12.0727 5.53125 10.7467 5.53125ZM10.7467 7.53125C11.1406 7.53118 11.5307 7.60872 11.8948 7.75942C12.2588 7.91012 12.5895 8.13105 12.8681 8.40958C13.1468 8.68811 13.3678 9.01879 13.5186 9.38274C13.6694 9.74669 13.7471 10.1368 13.7472 10.5308C13.7472 10.9247 13.6697 11.3148 13.519 11.6788C13.3683 12.0428 13.1474 12.3736 12.8688 12.6522C12.5903 12.9308 12.2596 13.1519 11.8957 13.3027C11.5317 13.4535 11.1416 13.5312 10.7477 13.5312C9.95201 13.5312 9.18895 13.2152 8.62634 12.6526C8.06373 12.09 7.74766 11.3269 7.74766 10.5312C7.74766 9.7356 8.06373 8.97254 8.62634 8.40993C9.18895 7.84732 9.95201 7.53125 10.7477 7.53125M15.9977 4.03125C15.6661 4.03125 15.3482 4.16295 15.1138 4.39737C14.8794 4.63179 14.7477 4.94973 14.7477 5.28125C14.7477 5.61277 14.8794 5.93071 15.1138 6.16513C15.3482 6.39955 15.6661 6.53125 15.9977 6.53125C16.3292 6.53125 16.6471 6.39955 16.8815 6.16513C17.116 5.93071 17.2477 5.61277 17.2477 5.28125C17.2477 4.94973 17.116 4.63179 16.8815 4.39737C16.6471 4.16295 16.3292 4.03125 15.9977 4.03125Z" fill="#5755AB"/>
</svg>
