<svg width="15" height="21" viewBox="0 0 15 21" fill="none" xmlns="http://www.w3.org/2000/svg">
<path d="M7.65625 10.0312C6.99321 10.0312 6.35732 9.76786 5.88848 9.29902C5.41964 8.83018 5.15625 8.19429 5.15625 7.53125C5.15625 6.86821 5.41964 6.23232 5.88848 5.76348C6.35732 5.29464 6.99321 5.03125 7.65625 5.03125C8.31929 5.03125 8.95518 5.29464 9.42402 5.76348C9.89286 6.23232 10.1562 6.86821 10.1562 7.53125C10.1562 7.85955 10.0916 8.18464 9.96595 8.48796C9.84031 8.79127 9.65616 9.06687 9.42402 9.29902C9.19187 9.53116 8.91627 9.71531 8.61296 9.84095C8.30964 9.96659 7.98455 10.0312 7.65625 10.0312ZM7.65625 0.53125C5.79973 0.53125 4.01926 1.26875 2.7065 2.5815C1.39375 3.89426 0.65625 5.67473 0.65625 7.53125C0.65625 12.7812 7.65625 20.5312 7.65625 20.5312C7.65625 20.5312 14.6562 12.7812 14.6562 7.53125C14.6562 5.67473 13.9188 3.89426 12.606 2.5815C11.2932 1.26875 9.51277 0.53125 7.65625 0.53125Z" fill="#5755AB"/>
</svg>
