<svg width="19" height="23" viewBox="0 0 19 23" fill="none" xmlns="http://www.w3.org/2000/svg">
<path d="M9.38867 9.67188C11.5978 9.67188 13.3887 7.88101 13.3887 5.67188C13.3887 3.46274 11.5978 1.67188 9.38867 1.67188C7.17953 1.67188 5.38867 3.46274 5.38867 5.67188C5.38867 7.88101 7.17953 9.67188 9.38867 9.67188Z" stroke="#1F1F1F" stroke-width="1.5"/>
<path d="M17.3867 17.6719C17.388 17.5079 17.3887 17.3412 17.3887 17.1719C17.3887 14.6869 13.8067 12.6719 9.38867 12.6719C4.97067 12.6719 1.38867 14.6869 1.38867 17.1719C1.38867 19.6569 1.38867 21.6719 9.38867 21.6719C11.6197 21.6719 13.2287 21.5149 14.3887 21.2349" stroke="#1F1F1F" stroke-width="1.5" stroke-linecap="round"/>
</svg>
