<svg width="19" height="19" viewBox="0 0 19 19" fill="none" xmlns="http://www.w3.org/2000/svg">
<path d="M4.29969 8.32125C5.73969 11.1512 8.05969 13.4612 10.8897 14.9112L13.0897 12.7113C13.3597 12.4412 13.7597 12.3512 14.1097 12.4712C15.2297 12.8412 16.4397 13.0413 17.6797 13.0413C18.2297 13.0413 18.6797 13.4913 18.6797 14.0413V17.5312C18.6797 18.0812 18.2297 18.5312 17.6797 18.5312C8.28969 18.5312 0.679688 10.9213 0.679688 1.53125C0.679688 0.98125 1.12969 0.53125 1.67969 0.53125H5.17969C5.72969 0.53125 6.17969 0.98125 6.17969 1.53125C6.17969 2.78125 6.37969 3.98125 6.74969 5.10125C6.85969 5.45125 6.77969 5.84125 6.49969 6.12125L4.29969 8.32125Z" fill="#5755AB"/>
</svg>
