<svg width="21" height="17" viewBox="0 0 21 17" fill="none" xmlns="http://www.w3.org/2000/svg">
<path fill-rule="evenodd" clip-rule="evenodd" d="M10.6562 0.671875C11.5112 0.671875 12.3882 0.693875 13.2382 0.729875L14.2423 0.777875L15.2033 0.834875L16.1033 0.895875L16.9252 0.959875C17.8174 1.02777 18.657 1.40831 19.2962 2.03448C19.9354 2.66064 20.3331 3.49227 20.4193 4.38287L20.4592 4.80787L20.5343 5.71787C20.6042 6.66087 20.6562 7.68888 20.6562 8.67188C20.6562 9.65487 20.6042 10.6829 20.5343 11.6259L20.4592 12.5359L20.4193 12.9609C20.333 13.8516 19.9352 14.6834 19.2958 15.3096C18.6565 15.9358 17.8166 16.3162 16.9242 16.3839L16.1042 16.4469L15.2043 16.5089L14.2423 16.5659L13.2382 16.6139C12.3781 16.6511 11.5172 16.6705 10.6562 16.6719C9.79527 16.6705 8.93442 16.6511 8.07425 16.6139L7.07025 16.5659L6.10925 16.5089L5.20925 16.4469L4.38725 16.3839C3.49506 16.316 2.65545 15.9354 2.01629 15.3093C1.37714 14.6831 0.979441 13.8515 0.89325 12.9609L0.85325 12.5359L0.77825 11.6259C0.702083 10.643 0.66139 9.65769 0.65625 8.67188C0.65625 7.68888 0.70825 6.66087 0.77825 5.71787L0.85325 4.80787L0.89325 4.38287C0.979407 3.49243 1.37696 2.66093 2.01591 2.03478C2.65486 1.40863 3.49424 1.02799 4.38625 0.959875L5.20725 0.895875L6.10725 0.834875L7.06925 0.777875L8.07325 0.729875C8.93375 0.692602 9.79494 0.673265 10.6562 0.671875ZM8.65625 6.24687V11.0969C8.65625 11.5589 9.15625 11.8469 9.55625 11.6169L13.7563 9.19188C13.8476 9.13927 13.9236 9.0635 13.9763 8.97221C14.0291 8.88092 14.0569 8.77733 14.0569 8.67188C14.0569 8.56642 14.0291 8.46283 13.9763 8.37154C13.9236 8.28025 13.8476 8.20448 13.7563 8.15187L9.55625 5.72787C9.46501 5.6752 9.36151 5.64747 9.25615 5.64749C9.1508 5.64751 9.04731 5.67526 8.95608 5.72797C8.86486 5.78068 8.78912 5.85648 8.73649 5.94774C8.68386 6.03901 8.65618 6.14252 8.65625 6.24788V6.24687Z" fill="#5755AB"/>
</svg>
