<svg width="1441" height="788" viewBox="0 0 1441 788" fill="none" xmlns="http://www.w3.org/2000/svg">
<g clip-path="url(#clip0_151_1998)">
<rect width="1440" height="788" transform="translate(0.0917969)" fill="#F5F5F5"/>
<mask id="mask0_151_1998" style="mask-type:luminance" maskUnits="userSpaceOnUse" x="0" y="0" width="1441" height="788">
<path d="M1440.09 0H0.0917969V788H1440.09V0Z" fill="white"/>
</mask>
<g mask="url(#mask0_151_1998)">
<mask id="mask1_151_1998" style="mask-type:alpha" maskUnits="userSpaceOnUse" x="0" y="0" width="1441" height="788">
<path d="M1440.09 0H0.0917969V788H1440.09V0Z" fill="#D9D9D9"/>
</mask>
<g mask="url(#mask1_151_1998)">
<g opacity="0.2">
<path d="M148.092 -14C148.092 -37.196 129.288 -56 106.092 -56C82.8958 -56 64.0918 -37.196 64.0918 -14C64.0918 9.19596 82.8958 28 106.092 28C129.288 28 148.092 9.19596 148.092 -14Z" fill="#4E46B4"/>
<path d="M148.092 -14C148.092 -37.196 129.288 -56 106.092 -56C82.8958 -56 64.0918 -37.196 64.0918 -14C64.0918 9.19596 82.8958 28 106.092 28C129.288 28 148.092 9.19596 148.092 -14Z" fill="black" fill-opacity="0.08"/>
</g>
<path opacity="0.2" d="M793.092 105C793.092 98.3726 787.719 93 781.092 93C774.464 93 769.092 98.3726 769.092 105C769.092 111.627 774.464 117 781.092 117C787.719 117 793.092 111.627 793.092 105Z" fill="#40A69F"/>
<path opacity="0.2" d="M137.092 714C137.092 700.745 126.347 690 113.092 690C99.837 690 89.0918 700.745 89.0918 714C89.0918 727.255 99.837 738 113.092 738C126.347 738 137.092 727.255 137.092 714Z" fill="#40A69F"/>
<path opacity="0.2" d="M1197.59 65.5C1197.59 61.0817 1201.17 57.5 1205.59 57.5C1210.01 57.5 1213.59 61.0817 1213.59 65.5C1213.59 69.9183 1210.01 73.5 1205.59 73.5C1201.17 73.5 1197.59 69.9183 1197.59 65.5Z" fill="#4E46B4"/>
<g opacity="0.2">
<path d="M598.092 188C598.092 185.791 596.301 184 594.092 184C591.883 184 590.092 185.791 590.092 188C590.092 190.209 591.883 192 594.092 192C596.301 192 598.092 190.209 598.092 188Z" fill="#4E46B4"/>
<path d="M598.092 188C598.092 185.791 596.301 184 594.092 184C591.883 184 590.092 185.791 590.092 188C590.092 190.209 591.883 192 594.092 192C596.301 192 598.092 190.209 598.092 188Z" fill="black" fill-opacity="0.08"/>
</g>
<path opacity="0.2" d="M705.092 524C705.092 517.373 710.465 512 717.092 512C723.719 512 729.092 517.373 729.092 524C729.092 530.627 723.719 536 717.092 536C710.465 536 705.092 530.627 705.092 524Z" fill="#FFB319"/>
<path opacity="0.2" d="M16.0918 648C16.0918 641.373 10.7192 636 4.0918 636C-2.53562 636 -7.9082 641.373 -7.9082 648C-7.9082 654.627 -2.53562 660 4.0918 660C10.7192 660 16.0918 654.627 16.0918 648Z" fill="#FFB319"/>
<path opacity="0.2" d="M1321.09 574C1321.09 570.686 1318.41 568 1315.09 568C1311.78 568 1309.09 570.686 1309.09 574C1309.09 577.314 1311.78 580 1315.09 580C1318.41 580 1321.09 577.314 1321.09 574Z" fill="#40A69F"/>
</g>
</g>
</g>
<defs>
<clipPath id="clip0_151_1998">
<rect width="1440" height="788" fill="white" transform="translate(0.0917969)"/>
</clipPath>
</defs>
</svg>
